M48
; DRILL file {KiCad (6.0.4)} date Mon Jul 18 01:28:06 2022
; FORMAT={-:-/ absolute / inch / decimal}
; #@! TF.CreationDate,2022-07-18T01:28:06-04:00
; #@! TF.GenerationSoftware,Kicad,Pcbnew,(6.0.4)
; #@! TF.FileFunction,NonPlated,1,2,NPTH
FMAT,2
INCH
; #@! TA.AperFunction,NonPlated,NPTH,ComponentDrill
T1C0.0354
; #@! TA.AperFunction,NonPlated,NPTH,ComponentDrill
T2C0.0670
; #@! TA.AperFunction,NonPlated,NPTH,ComponentDrill
T3C0.1350
%
G90
G05
T1
X-0.7677Y-0.2559
X-0.6496Y-0.2559
T2
X-0.2165Y2.6772
X-0.2165Y2.0079
X-0.2165Y1.3386
X-0.2165Y0.6693
X-0.2165Y0.0
X0.2165Y2.6772
X0.2165Y2.0079
X0.2165Y1.3386
X0.2165Y0.6693
X0.2165Y0.0
X0.4921Y2.6772
X0.4921Y2.0079
X0.4921Y1.3386
X0.4921Y0.6693
X0.4921Y0.0
X0.9252Y2.6772
X0.9252Y2.0079
X0.9252Y1.3386
X0.9252Y0.6693
X0.9252Y0.0
X1.2008Y2.6772
X1.2008Y2.0079
X1.2008Y1.3386
X1.2008Y0.6693
X1.2008Y0.0
X1.6339Y2.6772
X1.6339Y2.0079
X1.6339Y1.3386
X1.6339Y0.6693
X1.6339Y0.0
X1.9094Y2.6772
X1.9094Y2.0079
X1.9094Y1.3386
X1.9094Y0.6693
X1.9094Y0.0
X2.3425Y2.6772
X2.3425Y2.0079
X2.3425Y1.3386
X2.3425Y0.6693
X2.3425Y0.0
T3
X0.0Y2.6772
X0.0Y2.0079
X0.0Y1.3386
X0.0Y0.6693
X0.0Y0.0
X0.7087Y2.6772
X0.7087Y2.0079
X0.7087Y1.3386
X0.7087Y0.6693
X0.7087Y0.0
X1.4173Y2.6772
X1.4173Y2.0079
X1.4173Y1.3386
X1.4173Y0.6693
X1.4173Y0.0
X2.126Y2.6772
X2.126Y2.0079
X2.126Y1.3386
X2.126Y0.6693
X2.126Y0.0
T0
M30
