%TF.GenerationSoftware,KiCad,Pcbnew,(6.0.4)*%
%TF.CreationDate,2022-07-18T01:28:08-04:00*%
%TF.ProjectId,lisa,6c697361-2e6b-4696-9361-645f70636258,v1.0.0*%
%TF.SameCoordinates,Original*%
%TF.FileFunction,Legend,Bot*%
%TF.FilePolarity,Positive*%
%FSLAX46Y46*%
G04 Gerber Fmt 4.6, Leading zero omitted, Abs format (unit mm)*
G04 Created by KiCad (PCBNEW (6.0.4)) date 2022-07-18 01:28:08*
%MOMM*%
%LPD*%
G01*
G04 APERTURE LIST*
%ADD10C,0.300000*%
%ADD11C,0.100000*%
%ADD12R,1.752600X1.752600*%
%ADD13C,1.752600*%
G04 APERTURE END LIST*
D10*
%TO.C,G\u002A\u002A\u002A*%
X15142571Y29362000D02*
X15287714Y29434571D01*
X15505428Y29434571D01*
X15723142Y29362000D01*
X15868285Y29216857D01*
X15940857Y29071714D01*
X16013428Y28781428D01*
X16013428Y28563714D01*
X15940857Y28273428D01*
X15868285Y28128285D01*
X15723142Y27983142D01*
X15505428Y27910571D01*
X15360285Y27910571D01*
X15142571Y27983142D01*
X15070000Y28055714D01*
X15070000Y28563714D01*
X15360285Y28563714D01*
X14199142Y29434571D02*
X14199142Y29071714D01*
X14562000Y29216857D02*
X14199142Y29071714D01*
X13836285Y29216857D01*
X14416857Y28781428D02*
X14199142Y29071714D01*
X13981428Y28781428D01*
X13038000Y29434571D02*
X13038000Y29071714D01*
X13400857Y29216857D02*
X13038000Y29071714D01*
X12675142Y29216857D01*
X13255714Y28781428D02*
X13038000Y29071714D01*
X12820285Y28781428D01*
X11876857Y29434571D02*
X11876857Y29071714D01*
X12239714Y29216857D02*
X11876857Y29071714D01*
X11514000Y29216857D01*
X12094571Y28781428D02*
X11876857Y29071714D01*
X11659142Y28781428D01*
G36*
X55655737Y40223037D02*
G01*
X55942909Y39859600D01*
X56165443Y39467611D01*
X56497705Y38795146D01*
X56891933Y37940945D01*
X57302946Y37000000D01*
X57327979Y36941084D01*
X57712075Y36052277D01*
X58049096Y35298861D01*
X58303459Y34758785D01*
X58439583Y34510001D01*
X58486455Y34443000D01*
X58600001Y34057821D01*
X58615666Y33949052D01*
X58752030Y33512469D01*
X58982972Y32947821D01*
X59272693Y32266294D01*
X59785414Y30917931D01*
X60377299Y29215631D01*
X61041204Y27180883D01*
X61769982Y24835177D01*
X62556490Y22200000D01*
X63700000Y18300000D01*
X63752810Y700000D01*
X63756176Y-549982D01*
X63760773Y-3352885D01*
X63760930Y-5971184D01*
X63756820Y-8380945D01*
X63748613Y-10558239D01*
X63736483Y-12479133D01*
X63720599Y-14119695D01*
X63701134Y-15455995D01*
X63678260Y-16464100D01*
X63652148Y-17120079D01*
X63622970Y-17400000D01*
X63582833Y-17518379D01*
X63423549Y-18050644D01*
X63215037Y-18802103D01*
X62991735Y-19650000D01*
X62543148Y-21400000D01*
X55085052Y-21400000D01*
X53523991Y-21399365D01*
X51885066Y-21395813D01*
X50577918Y-21387553D01*
X49564504Y-21372823D01*
X48806779Y-21349864D01*
X48266699Y-21316914D01*
X47906220Y-21272213D01*
X47687297Y-21214001D01*
X47571887Y-21140516D01*
X47521946Y-21050000D01*
X47504825Y-20991355D01*
X47385020Y-20559407D01*
X47203894Y-19889537D01*
X46993493Y-19100000D01*
X46970375Y-19012654D01*
X46726884Y-18093396D01*
X46488597Y-17194844D01*
X46304043Y-16500000D01*
X46038604Y-15501453D01*
X45503004Y-13480944D01*
X45061781Y-11806724D01*
X44707857Y-10451093D01*
X44434154Y-9386347D01*
X44233595Y-8584786D01*
X44099102Y-8018706D01*
X44023596Y-7660406D01*
X44000000Y-7482183D01*
X44060672Y-7322929D01*
X44346289Y-6898358D01*
X44812747Y-6317566D01*
X45400751Y-5657780D01*
X46638964Y-4146964D01*
X47595877Y-2528935D01*
X47999407Y-1627437D01*
X48734064Y505634D01*
X49284768Y2836636D01*
X49638901Y5263064D01*
X49783843Y7682415D01*
X49706973Y9992184D01*
X49395672Y12089869D01*
X49315846Y12470134D01*
X49186221Y13235546D01*
X49095794Y14059793D01*
X49038596Y15028093D01*
X49008654Y16225664D01*
X49000000Y17737724D01*
X48996692Y18812315D01*
X48971744Y20111130D01*
X48907668Y21136798D01*
X48787425Y21964825D01*
X48593980Y22670719D01*
X48310293Y23329987D01*
X47919327Y24018137D01*
X47404045Y24810676D01*
X46613749Y25966784D01*
X45808081Y27102617D01*
X45058958Y28118157D01*
X44419584Y28941315D01*
X43943164Y29500000D01*
X43903274Y29543329D01*
X43582718Y30009687D01*
X43457663Y30543062D01*
X43521831Y31240738D01*
X43768944Y32200000D01*
X43772862Y32213116D01*
X43908406Y32690118D01*
X44116428Y33447976D01*
X44369300Y34385126D01*
X44639394Y35400000D01*
X44672888Y35526296D01*
X44932657Y36475941D01*
X45167116Y37284555D01*
X45351689Y37869965D01*
X45461804Y38150000D01*
X45649758Y38256683D01*
X46134683Y38338596D01*
X46945511Y38385223D01*
X48118785Y38400000D01*
X49034658Y38407103D01*
X49974743Y38446079D01*
X50740206Y38533358D01*
X51458476Y38684843D01*
X52256982Y38916436D01*
X52629861Y39034648D01*
X53477278Y39318942D01*
X54097960Y39564560D01*
X54609514Y39821602D01*
X55129546Y40140169D01*
X55420407Y40290768D01*
X55655737Y40223037D01*
G37*
G36*
X35514069Y35941636D02*
G01*
X36117373Y35802631D01*
X36735063Y35535196D01*
X37410741Y35112483D01*
X38188011Y34507643D01*
X39110477Y33693830D01*
X40221742Y32644195D01*
X41565411Y31331891D01*
X42916865Y29949903D01*
X44853258Y27737804D01*
X46415040Y25620922D01*
X47597018Y23605909D01*
X48006946Y22550250D01*
X48322399Y21137613D01*
X48467848Y19612689D01*
X48422210Y18115746D01*
X48315416Y17405566D01*
X48163534Y16961540D01*
X47998039Y16899473D01*
X47839555Y17224405D01*
X47708704Y17941375D01*
X47702293Y17992634D01*
X47336727Y19465410D01*
X46653191Y20965565D01*
X45714718Y22409001D01*
X44584340Y23711620D01*
X43325090Y24789321D01*
X42000000Y25558006D01*
X41735475Y25649774D01*
X40853395Y25791447D01*
X39656781Y25825914D01*
X38195045Y25754892D01*
X36517603Y25580100D01*
X34673869Y25303256D01*
X33778747Y25145370D01*
X32495804Y24898981D01*
X31225845Y24626102D01*
X29890077Y24307654D01*
X28409709Y23924558D01*
X26705947Y23457734D01*
X24700000Y22888103D01*
X23975800Y22680740D01*
X22909867Y22378271D01*
X21988950Y22120184D01*
X21292782Y21928765D01*
X20901100Y21826301D01*
X20854745Y21814762D01*
X20527378Y21682277D01*
X20503844Y21559429D01*
X20545100Y21546018D01*
X20925670Y21552612D01*
X21621555Y21639852D01*
X22574843Y21797594D01*
X23727622Y22015691D01*
X25021978Y22283999D01*
X26400000Y22592371D01*
X26458891Y22606035D01*
X28549343Y23086568D01*
X30308965Y23479170D01*
X31793412Y23793217D01*
X33058340Y24038083D01*
X34159403Y24223145D01*
X35152258Y24357776D01*
X36092558Y24451354D01*
X37035960Y24513253D01*
X38038119Y24552847D01*
X38499187Y24566375D01*
X39580351Y24591504D01*
X40365927Y24591195D01*
X40933065Y24558782D01*
X41358915Y24487598D01*
X41720628Y24370976D01*
X42095356Y24202249D01*
X42949550Y23693476D01*
X44044292Y22797120D01*
X45018694Y21743715D01*
X45741733Y20660527D01*
X46025511Y20070977D01*
X46222550Y19555875D01*
X46266442Y19273701D01*
X46136948Y19188270D01*
X45716380Y19222861D01*
X44973415Y19423701D01*
X44394422Y19586601D01*
X43696300Y19740544D01*
X43203775Y19800000D01*
X42811472Y19764161D01*
X42008683Y19613001D01*
X40961783Y19363983D01*
X39746593Y19039242D01*
X38438933Y18660914D01*
X37114624Y18251138D01*
X35849485Y17832048D01*
X34719337Y17425781D01*
X33800000Y17054474D01*
X33699435Y17010305D01*
X33003454Y16704853D01*
X32300000Y16396402D01*
X32207506Y16355647D01*
X31583575Y16075497D01*
X30778469Y15708459D01*
X29942369Y15322915D01*
X29656178Y15190919D01*
X28985511Y14888763D01*
X28496253Y14678724D01*
X28278617Y14600000D01*
X28215246Y14579238D01*
X27857178Y14418445D01*
X27255330Y14129942D01*
X26484922Y13751387D01*
X25621176Y13320438D01*
X24739313Y12874752D01*
X23914555Y12451988D01*
X23222124Y12089803D01*
X22737240Y11825854D01*
X22263481Y11552300D01*
X21538332Y11102128D01*
X21152174Y10803340D01*
X21088926Y10644409D01*
X21170189Y10620086D01*
X21445167Y10739842D01*
X21518976Y10789698D01*
X21939209Y11008958D01*
X22500000Y11250997D01*
X22642578Y11307774D01*
X22965558Y11441944D01*
X23373206Y11619483D01*
X23911767Y11861477D01*
X24627483Y12189013D01*
X25566598Y12623178D01*
X26775356Y13185058D01*
X28300000Y13895740D01*
X29844795Y14599562D01*
X31730501Y15407531D01*
X33663055Y16173975D01*
X35728278Y16931360D01*
X38011987Y17712150D01*
X40600000Y18548812D01*
X42126018Y18957395D01*
X43394127Y19122470D01*
X44431038Y19035329D01*
X45279460Y18692329D01*
X45982103Y18089828D01*
X46583534Y17279631D01*
X47321035Y15911540D01*
X47968344Y14275754D01*
X48501267Y12446049D01*
X48895606Y10496205D01*
X49127166Y8500000D01*
X49126974Y6812165D01*
X48861702Y4713794D01*
X48343409Y2538572D01*
X47604256Y378618D01*
X46676401Y-1673948D01*
X45592006Y-3527008D01*
X44383231Y-5088444D01*
X44110664Y-5367814D01*
X43746486Y-5609103D01*
X43474862Y-5528525D01*
X43252292Y-5100639D01*
X43035278Y-4300000D01*
X42862329Y-3592665D01*
X42628309Y-2693660D01*
X42384448Y-1800000D01*
X42268868Y-1386724D01*
X41879201Y29884D01*
X41528546Y1339642D01*
X41231103Y2487003D01*
X41001066Y3416422D01*
X40852633Y4072354D01*
X40800000Y4399252D01*
X40876315Y4572178D01*
X41188770Y4991885D01*
X41686661Y5560248D01*
X42309581Y6205006D01*
X42658705Y6561163D01*
X43432169Y7410463D01*
X44150279Y8270206D01*
X44693303Y9000000D01*
X45188899Y9776334D01*
X45581566Y10492392D01*
X45767744Y10967496D01*
X45751219Y11179176D01*
X45535777Y11104962D01*
X45125204Y10722385D01*
X44523286Y10008977D01*
X44422610Y9881934D01*
X43430642Y8718025D01*
X42286762Y7503680D01*
X41057580Y6299646D01*
X39809706Y5166668D01*
X38609751Y4165491D01*
X37524324Y3356862D01*
X36620035Y2801526D01*
X36400631Y2727505D01*
X35802124Y2614312D01*
X34986051Y2515991D01*
X34063061Y2447848D01*
X33745064Y2429833D01*
X32794313Y2344026D01*
X32241397Y2235159D01*
X32086727Y2109777D01*
X32330712Y1974427D01*
X32973761Y1835652D01*
X34016283Y1700000D01*
X34912969Y1591442D01*
X35489034Y1483075D01*
X35778304Y1362124D01*
X35837787Y1213361D01*
X35712624Y924877D01*
X35326435Y342459D01*
X34736721Y-412121D01*
X33994591Y-1281437D01*
X33151152Y-2208060D01*
X32257510Y-3134565D01*
X31364773Y-4003523D01*
X30524048Y-4757508D01*
X30052193Y-5159289D01*
X29429817Y-5692927D01*
X28960939Y-6099463D01*
X28721535Y-6313319D01*
X28404377Y-6568991D01*
X27950000Y-6886320D01*
X27918645Y-6907118D01*
X27551300Y-7203635D01*
X27400000Y-7426812D01*
X27405817Y-7452593D01*
X27610281Y-7513269D01*
X27984163Y-7461439D01*
X28359085Y-7334301D01*
X28566667Y-7169058D01*
X28581349Y-7139524D01*
X28830632Y-7000000D01*
X28973974Y-6953291D01*
X29383901Y-6731581D01*
X29916014Y-6388982D01*
X30020266Y-6317845D01*
X30512242Y-6016096D01*
X30785610Y-5942187D01*
X30916883Y-6071874D01*
X30921427Y-6089977D01*
X30917771Y-6426655D01*
X30859361Y-7108181D01*
X30751866Y-8090724D01*
X30600952Y-9330454D01*
X30412289Y-10783542D01*
X30191542Y-12406155D01*
X29944382Y-14154464D01*
X29676474Y-15984639D01*
X29393486Y-17852848D01*
X29379815Y-17941845D01*
X29231810Y-18945933D01*
X29111100Y-19836705D01*
X29029794Y-20520299D01*
X29000000Y-20902848D01*
X29000000Y-21400000D01*
X-5456982Y-21400000D01*
X-5335337Y-20250000D01*
X-5252345Y-19632846D01*
X-5083487Y-18599216D01*
X-4837820Y-17217959D01*
X-4519707Y-15511748D01*
X-4133514Y-13503258D01*
X-3683605Y-11215164D01*
X-3174347Y-8670140D01*
X-2610105Y-5890860D01*
X-1995242Y-2900000D01*
X-1940310Y-2634207D01*
X-1615497Y-1052865D01*
X-1358550Y227609D01*
X-1156275Y1285926D01*
X-995474Y2200795D01*
X-862952Y3050927D01*
X-745513Y3915031D01*
X-629958Y4871819D01*
X-503094Y6000000D01*
X-359930Y7294248D01*
X-153256Y9151497D01*
X49168Y10954541D01*
X264264Y12853876D01*
X508955Y15000000D01*
X554575Y15383927D01*
X737035Y16730106D01*
X957915Y18144587D01*
X1202527Y19549836D01*
X1456182Y20868320D01*
X1704193Y22022505D01*
X1931870Y22934858D01*
X2124524Y23527846D01*
X2480095Y24151718D01*
X3299223Y25027088D01*
X4439803Y25848256D01*
X5855506Y26583561D01*
X7500000Y27201341D01*
X7846276Y27310111D01*
X8404929Y27483532D01*
X8909721Y27634937D01*
X9434200Y27784572D01*
X10051918Y27952681D01*
X10836424Y28159510D01*
X11861268Y28425304D01*
X13200000Y28770307D01*
X15109673Y29266357D01*
X16767742Y29710872D01*
X18175216Y30109992D01*
X19402498Y30487720D01*
X20519986Y30868056D01*
X21598080Y31275001D01*
X22707180Y31732558D01*
X23917687Y32264726D01*
X25300000Y32895507D01*
X25379887Y32932305D01*
X27586471Y33904492D01*
X29594626Y34702435D01*
X31370596Y35314464D01*
X32880621Y35728911D01*
X34090945Y35934108D01*
X34176200Y35941747D01*
X34881546Y35979059D01*
X35514069Y35941636D01*
G37*
G36*
X13639114Y52599928D02*
G01*
X13720894Y52410517D01*
X13780370Y51926201D01*
X13804772Y51250000D01*
X13828438Y50567524D01*
X13905192Y49735220D01*
X14015850Y49100000D01*
X14145777Y48555974D01*
X14323585Y47744358D01*
X14496085Y46900000D01*
X14499432Y46882910D01*
X14685681Y45955696D01*
X14909671Y44873759D01*
X15123661Y43867771D01*
X15477309Y42235542D01*
X14688655Y41297937D01*
X14492979Y41060366D01*
X13926286Y40343289D01*
X13216355Y39417923D01*
X12411565Y38349945D01*
X11560295Y37205030D01*
X10710924Y36048855D01*
X9911830Y34947095D01*
X9211392Y33965427D01*
X8657990Y33169528D01*
X8300000Y32625072D01*
X8098135Y32326181D01*
X7729219Y31809055D01*
X7282456Y31200000D01*
X7077104Y30918878D01*
X6528887Y30142691D01*
X5909347Y29240339D01*
X5317174Y28354702D01*
X5005014Y27898561D01*
X4404214Y27100190D01*
X3828585Y26422157D01*
X3369006Y25975452D01*
X2809395Y25405271D01*
X2121565Y24334728D01*
X1472410Y22899542D01*
X869247Y21119101D01*
X319394Y19012791D01*
X-169832Y16600000D01*
X-251067Y16141200D01*
X-360592Y15502544D01*
X-459438Y14886741D01*
X-554270Y14241221D01*
X-651754Y13513411D01*
X-758553Y12650740D01*
X-881332Y11600635D01*
X-1026756Y10310525D01*
X-1201490Y8727837D01*
X-1412199Y6800000D01*
X-1553334Y5556483D01*
X-1708462Y4285596D01*
X-1858644Y3142525D01*
X-1992026Y2217312D01*
X-2096753Y1600000D01*
X-2113612Y1515348D01*
X-2260315Y772618D01*
X-2455815Y-224204D01*
X-2676618Y-1355087D01*
X-2899231Y-2500000D01*
X-2952064Y-2771355D01*
X-3164616Y-3844255D01*
X-3362853Y-4817814D01*
X-3526616Y-5594166D01*
X-3635743Y-6075440D01*
X-3688310Y-6261660D01*
X-3846267Y-6617310D01*
X-3982324Y-6675440D01*
X-4009403Y-6625017D01*
X-4134022Y-6250778D01*
X-4317624Y-5588582D01*
X-4540089Y-4713348D01*
X-4781300Y-3700000D01*
X-5083751Y-2393667D01*
X-5471060Y-742965D01*
X-5813630Y683044D01*
X-6135645Y1983069D01*
X-6461286Y3255819D01*
X-6814737Y4600000D01*
X-6827296Y4647409D01*
X-7109355Y5769011D01*
X-7425172Y7111227D01*
X-7737050Y8509681D01*
X-8007292Y9800000D01*
X-8037659Y9951302D01*
X-8290605Y11200921D01*
X-8554267Y12487694D01*
X-8799161Y13668446D01*
X-8995801Y14600000D01*
X-9109040Y15131599D01*
X-9572892Y17365560D01*
X-10059855Y19790582D01*
X-10554288Y22323576D01*
X-11040551Y24881452D01*
X-11503004Y27381123D01*
X-11926007Y29739497D01*
X-12293919Y31873486D01*
X-12591099Y33700000D01*
X-12743604Y34665541D01*
X-12967507Y36054072D01*
X-13193543Y37429238D01*
X-13390545Y38600000D01*
X-13408022Y38702087D01*
X-13802436Y41026658D01*
X-14124541Y42969817D01*
X-14376027Y44542783D01*
X-14558585Y45756775D01*
X-14673904Y46623010D01*
X-14723673Y47152706D01*
X-14709583Y47357083D01*
X-14687247Y47376597D01*
X-14473594Y47333871D01*
X-14214963Y46911011D01*
X-13906231Y46100000D01*
X-13728315Y45592219D01*
X-13426402Y44770996D01*
X-13059926Y43800862D01*
X-12673052Y42800000D01*
X-12378285Y42046764D01*
X-12043478Y41192794D01*
X-11780502Y40528470D01*
X-11551165Y39960890D01*
X-11317272Y39397155D01*
X-11040630Y38744362D01*
X-10683046Y37909611D01*
X-10206326Y36800000D01*
X-10198212Y36781099D01*
X-9927018Y36139134D01*
X-9547912Y35227785D01*
X-9078199Y34089685D01*
X-8535182Y32767470D01*
X-7936167Y31303774D01*
X-7298456Y29741234D01*
X-6639354Y28122483D01*
X-5976164Y26490156D01*
X-5326192Y24886888D01*
X-4706741Y23355315D01*
X-4135114Y21938071D01*
X-3628617Y20677790D01*
X-3204553Y19617109D01*
X-2880226Y18798662D01*
X-2672940Y18265083D01*
X-2600000Y18059007D01*
X-2594881Y18045757D01*
X-2400000Y18000000D01*
X-2274735Y18098694D01*
X-2197089Y18450000D01*
X-2184452Y18605225D01*
X-2070378Y19159448D01*
X-1876816Y19800000D01*
X-1815909Y19979573D01*
X-1609543Y20628599D01*
X-1334831Y21527714D01*
X-1020287Y22582865D01*
X-694426Y23700000D01*
X804580Y28521399D01*
X2652760Y33604282D01*
X4677340Y38339822D01*
X6881676Y42735801D01*
X9269125Y46800000D01*
X9736287Y47527754D01*
X10675648Y48946276D01*
X11530992Y50177565D01*
X12278580Y51190101D01*
X12894673Y51952366D01*
X13355532Y52432839D01*
X13637419Y52600000D01*
X13639114Y52599928D01*
G37*
G36*
X7233324Y77750000D02*
G01*
X8072220Y76969208D01*
X10189419Y75127186D01*
X12566071Y73208849D01*
X15126632Y71268874D01*
X17795557Y69361940D01*
X20497304Y67542725D01*
X23156327Y65865905D01*
X25697084Y64386159D01*
X26024013Y64205865D01*
X26747133Y63814933D01*
X27326592Y63512210D01*
X27659933Y63351692D01*
X27726590Y63322956D01*
X27945882Y63137441D01*
X27780720Y62968284D01*
X27244543Y62822116D01*
X26350791Y62705571D01*
X25012477Y62522912D01*
X22559097Y61886293D01*
X20183921Y60876504D01*
X20162283Y60865368D01*
X19394416Y60441954D01*
X18696162Y59984230D01*
X17983267Y59426402D01*
X17171474Y58702680D01*
X16176529Y57747272D01*
X15682368Y57255752D01*
X13635206Y55076595D01*
X11661872Y52754791D01*
X9829935Y50376991D01*
X8206960Y48029843D01*
X6860515Y45800000D01*
X6542129Y45228509D01*
X6035242Y44327550D01*
X5559195Y43489761D01*
X5534416Y43446421D01*
X5264150Y42966365D01*
X5006587Y42489242D01*
X4731615Y41954056D01*
X4409126Y41299816D01*
X4009009Y40465527D01*
X3501154Y39390195D01*
X2855450Y38012829D01*
X2794944Y37883513D01*
X2491325Y37231993D01*
X2243462Y36687449D01*
X2024033Y36180831D01*
X1805720Y35643094D01*
X1561202Y35005189D01*
X1263159Y34198070D01*
X884272Y33152690D01*
X397220Y31800000D01*
X282698Y31480630D01*
X-289137Y29838642D01*
X-747126Y28416029D01*
X-1127896Y27086347D01*
X-1468074Y25723153D01*
X-1804289Y24200000D01*
X-1908354Y23711796D01*
X-2080230Y22932128D01*
X-2217008Y22344987D01*
X-2295906Y22050000D01*
X-2435626Y21852560D01*
X-2706237Y21845162D01*
X-2927960Y22150000D01*
X-2945566Y22199644D01*
X-3089262Y22580215D01*
X-3353665Y23267666D01*
X-3719647Y24212684D01*
X-4168083Y25365955D01*
X-4679844Y26678165D01*
X-5235802Y28100000D01*
X-5295811Y28253297D01*
X-5896279Y29789270D01*
X-6489036Y31308906D01*
X-7046402Y32741001D01*
X-7540694Y34014351D01*
X-7944230Y35057752D01*
X-8229329Y35800000D01*
X-8496472Y36495290D01*
X-8842668Y37382457D01*
X-9135668Y38118126D01*
X-9331485Y38590915D01*
X-9468323Y38918911D01*
X-9740871Y39600376D01*
X-10077323Y40461396D01*
X-10433953Y41390915D01*
X-10695084Y42075468D01*
X-11174249Y43323053D01*
X-11678654Y44628302D01*
X-12134549Y45800000D01*
X-12637176Y47085670D01*
X-13420866Y49090412D01*
X-14082321Y50782687D01*
X-14636533Y52200865D01*
X-15098493Y53383316D01*
X-15483193Y54368409D01*
X-15805625Y55194514D01*
X-16080780Y55900000D01*
X-16327112Y56597652D01*
X-16734476Y58010453D01*
X-17159726Y59785430D01*
X-17597155Y61900000D01*
X-18049339Y64142744D01*
X-18601122Y66696602D01*
X-19185528Y69236851D01*
X-19779842Y71667958D01*
X-20361347Y73894392D01*
X-20907326Y75820621D01*
X-20907958Y75822737D01*
X-21176690Y76741211D01*
X-21396735Y77527706D01*
X-21545402Y78098687D01*
X-21600000Y78370621D01*
X-21599283Y78374757D01*
X-21471763Y78421678D01*
X-21111761Y78462363D01*
X-20500665Y78497117D01*
X-19619865Y78526246D01*
X-18450748Y78550056D01*
X-16974704Y78568851D01*
X-15173121Y78582937D01*
X-13027388Y78592620D01*
X-10518892Y78598206D01*
X-7629023Y78600000D01*
X6341953Y78600000D01*
X7233324Y77750000D01*
G37*
G36*
X63796938Y50450000D02*
G01*
X63796741Y49377476D01*
X63794267Y45158380D01*
X63789143Y41283888D01*
X63781405Y37759036D01*
X63771088Y34588859D01*
X63758229Y31778393D01*
X63742862Y29332673D01*
X63725023Y27256735D01*
X63704748Y25555613D01*
X63682073Y24234343D01*
X63657033Y23297961D01*
X63629664Y22751502D01*
X63600000Y22600000D01*
X63481011Y22887422D01*
X63402559Y23400000D01*
X63400620Y23450711D01*
X63322973Y23962733D01*
X63146951Y24764447D01*
X62892959Y25777444D01*
X62581402Y26923309D01*
X62232686Y28123632D01*
X61867215Y29300000D01*
X61710357Y29781517D01*
X60764945Y32506461D01*
X59750359Y35159840D01*
X58709525Y37633667D01*
X57685373Y39819950D01*
X57682090Y39826530D01*
X57238499Y40814987D01*
X56991314Y41651673D01*
X56892171Y42500000D01*
X56843846Y43315565D01*
X56736213Y44214414D01*
X56561120Y44853397D01*
X56293018Y45314971D01*
X55906357Y45681592D01*
X55811868Y45751042D01*
X55232006Y46101210D01*
X54712066Y46314844D01*
X54458156Y46424470D01*
X53982406Y46859140D01*
X53434731Y47637315D01*
X53093521Y48168537D01*
X52381056Y49211900D01*
X51546335Y50378265D01*
X50672826Y51554007D01*
X49843999Y52625501D01*
X49143322Y53479122D01*
X48741292Y53958714D01*
X48275197Y54546049D01*
X47960966Y54979122D01*
X47670249Y55349709D01*
X47106639Y55961842D01*
X46365905Y56708048D01*
X45517814Y57522810D01*
X44632132Y58340609D01*
X43778627Y59095928D01*
X43027067Y59723247D01*
X42447219Y60157050D01*
X40804261Y61134648D01*
X39058355Y61887583D01*
X37177274Y62399667D01*
X35045562Y62710735D01*
X34958655Y62719481D01*
X34250696Y62812234D01*
X33725198Y62917995D01*
X33490389Y63015552D01*
X33488013Y63039208D01*
X33676876Y63229962D01*
X34130101Y63524750D01*
X34768143Y63870359D01*
X35743937Y64384418D01*
X37378479Y65321918D01*
X39197565Y66437799D01*
X41130046Y67683902D01*
X43104773Y69012070D01*
X45050596Y70374145D01*
X46896366Y71721970D01*
X48570934Y73007387D01*
X50003150Y74182237D01*
X50304996Y74440758D01*
X51250273Y75248476D01*
X52263006Y76111743D01*
X53170204Y76883037D01*
X53697880Y77339854D01*
X54267830Y77858289D01*
X54656373Y78242816D01*
X54800001Y78433037D01*
X54851055Y78458123D01*
X55224395Y78503614D01*
X55912406Y78542642D01*
X56858641Y78573111D01*
X58006655Y78592929D01*
X59300000Y78600000D01*
X63800000Y78600000D01*
X63796938Y50450000D01*
G37*
G36*
X26253252Y51344843D02*
G01*
X28400887Y51155117D01*
X30854634Y50931609D01*
X32974460Y50725707D01*
X34796938Y50529539D01*
X36358643Y50335231D01*
X37696148Y50134911D01*
X38846028Y49920708D01*
X39844855Y49684748D01*
X40729205Y49419160D01*
X41535650Y49116070D01*
X42300765Y48767607D01*
X43061123Y48365898D01*
X43853299Y47903070D01*
X44713866Y47371251D01*
X44755273Y47345281D01*
X45511157Y46878543D01*
X46140304Y46526441D01*
X46717960Y46272678D01*
X47319375Y46100957D01*
X48019796Y45994982D01*
X48894473Y45938454D01*
X50018652Y45915077D01*
X51467583Y45908554D01*
X52355744Y45906284D01*
X53488227Y45899080D01*
X54313181Y45881980D01*
X54887537Y45848693D01*
X55268224Y45792927D01*
X55512174Y45708391D01*
X55676317Y45588793D01*
X55817583Y45427844D01*
X56098740Y44991793D01*
X56161214Y44467783D01*
X55855613Y43950953D01*
X55777442Y43862371D01*
X55644271Y43649859D01*
X55800865Y43635205D01*
X55994682Y43590687D01*
X56146808Y43278684D01*
X56154473Y42779112D01*
X56001867Y42204507D01*
X55511199Y41431806D01*
X54637375Y40707517D01*
X53389841Y40083794D01*
X52197439Y39656152D01*
X50223125Y39180172D01*
X48191598Y38990125D01*
X46047484Y39086256D01*
X43735409Y39468813D01*
X41200000Y40138042D01*
X40923182Y40213544D01*
X40443933Y40306148D01*
X39842143Y40375693D01*
X39062334Y40425350D01*
X38049027Y40458289D01*
X36746742Y40477683D01*
X35100000Y40486701D01*
X34718101Y40487770D01*
X33249755Y40494242D01*
X32114136Y40506731D01*
X31256328Y40529557D01*
X30621417Y40567043D01*
X30154487Y40623508D01*
X29800623Y40703276D01*
X29504911Y40810666D01*
X29212435Y40950000D01*
X28897542Y41107959D01*
X28464775Y41317800D01*
X28272651Y41400000D01*
X28265636Y41394836D01*
X28137648Y41175506D01*
X27894398Y40697560D01*
X27581455Y40050000D01*
X27551693Y39987423D01*
X26927971Y38797886D01*
X26173910Y37586713D01*
X25246541Y36293803D01*
X24102894Y34859054D01*
X22700000Y33222366D01*
X22645319Y33161995D01*
X22077132Y32674788D01*
X21280293Y32204749D01*
X20213016Y31733131D01*
X18833515Y31241190D01*
X17100000Y30710179D01*
X16047078Y30400067D01*
X14740864Y30004310D01*
X13484063Y29613408D01*
X12444531Y29278965D01*
X11774266Y29062648D01*
X10977544Y28819798D01*
X10369283Y28651121D01*
X10044531Y28584134D01*
X9879542Y28554860D01*
X9368275Y28415531D01*
X8641917Y28188819D01*
X7800000Y27904847D01*
X7252863Y27714950D01*
X6524371Y27466176D01*
X5998195Y27291644D01*
X5761804Y27220713D01*
X5746218Y27218597D01*
X5571767Y27273463D01*
X5597562Y27522189D01*
X5837797Y27992931D01*
X6306669Y28713847D01*
X7018375Y29713096D01*
X7068555Y29781854D01*
X7726254Y30685710D01*
X8354741Y31553769D01*
X8884955Y32290407D01*
X9247833Y32800000D01*
X9631032Y33323377D01*
X10217766Y34096739D01*
X10946108Y35040262D01*
X11760280Y36082879D01*
X12604504Y37153521D01*
X13423004Y38181120D01*
X14160002Y39094609D01*
X14759720Y39822918D01*
X14880323Y39967870D01*
X15363408Y40556300D01*
X16025520Y41370052D01*
X16814785Y42345094D01*
X17679330Y43417393D01*
X18567280Y44522918D01*
X19841697Y46094190D01*
X21143711Y47647652D01*
X22249301Y48900844D01*
X23173703Y49870351D01*
X23932154Y50572758D01*
X24539887Y51024652D01*
X24906523Y51218312D01*
X25485149Y51359828D01*
X26253252Y51344843D01*
G37*
G36*
X48066357Y52583334D02*
G01*
X48232990Y52371894D01*
X48811419Y51613461D01*
X49452303Y50744292D01*
X50112622Y49826062D01*
X50749355Y48920442D01*
X51319481Y48089106D01*
X51779978Y47393728D01*
X52087825Y46895979D01*
X52200000Y46657535D01*
X52196164Y46647678D01*
X51965172Y46600646D01*
X51444625Y46590505D01*
X50729307Y46611098D01*
X49914004Y46656270D01*
X49093502Y46719865D01*
X48362586Y46795726D01*
X47816040Y46877697D01*
X47548652Y46959624D01*
X47475908Y47059343D01*
X47409058Y47348616D01*
X47392240Y47857911D01*
X47424539Y48646287D01*
X47505039Y49772800D01*
X47591706Y50769792D01*
X47702251Y51731976D01*
X47814887Y52338332D01*
X47934596Y52613803D01*
X48066357Y52583334D01*
G37*
G36*
X31119476Y61886439D02*
G01*
X32552921Y61879528D01*
X33673137Y61861535D01*
X34549388Y61827427D01*
X35250937Y61772170D01*
X35847046Y61690731D01*
X36406980Y61578075D01*
X37000000Y61429168D01*
X37984218Y61142463D01*
X38943142Y60810365D01*
X39708961Y60487749D01*
X40216354Y60202413D01*
X40400000Y59982159D01*
X40398512Y59940012D01*
X40344876Y59837229D01*
X40153188Y59823719D01*
X39741153Y59905972D01*
X39026478Y60090477D01*
X38922953Y60117548D01*
X37139160Y60466403D01*
X35056977Y60686565D01*
X32751543Y60778964D01*
X30297992Y60744531D01*
X27771460Y60584197D01*
X25247084Y60298891D01*
X22800000Y59889544D01*
X22663471Y59862777D01*
X21692135Y59692169D01*
X21054920Y59627759D01*
X20706112Y59667915D01*
X20600000Y59811006D01*
X20638406Y59895070D01*
X20971661Y60142746D01*
X21589865Y60451269D01*
X22423228Y60791051D01*
X23401961Y61132501D01*
X24456275Y61446029D01*
X24613364Y61488076D01*
X25173086Y61624378D01*
X25721961Y61726184D01*
X26328455Y61798329D01*
X27061037Y61845651D01*
X27988177Y61872984D01*
X29178342Y61885165D01*
X30700000Y61887030D01*
X31119476Y61886439D01*
G37*
D11*
%TO.C,D1*%
X250000Y-4500000D02*
X750000Y-4500000D01*
X250000Y-4900000D02*
X-350000Y-4500000D01*
X250000Y-4100000D02*
X250000Y-4900000D01*
X-350000Y-4500000D02*
X250000Y-4100000D01*
X-350000Y-4500000D02*
X-350000Y-5050000D01*
X-350000Y-4500000D02*
X-350000Y-3950000D01*
X-750000Y-4500000D02*
X-350000Y-4500000D01*
%TO.C,D2*%
X250000Y12500000D02*
X750000Y12500000D01*
X250000Y12100000D02*
X-350000Y12500000D01*
X250000Y12900000D02*
X250000Y12100000D01*
X-350000Y12500000D02*
X250000Y12900000D01*
X-350000Y12500000D02*
X-350000Y11950000D01*
X-350000Y12500000D02*
X-350000Y13050000D01*
X-750000Y12500000D02*
X-350000Y12500000D01*
%TO.C,D3*%
X250000Y29500000D02*
X750000Y29500000D01*
X250000Y29100000D02*
X-350000Y29500000D01*
X250000Y29900000D02*
X250000Y29100000D01*
X-350000Y29500000D02*
X250000Y29900000D01*
X-350000Y29500000D02*
X-350000Y28950000D01*
X-350000Y29500000D02*
X-350000Y30050000D01*
X-750000Y29500000D02*
X-350000Y29500000D01*
%TO.C,D4*%
X250000Y46500000D02*
X750000Y46500000D01*
X250000Y46100000D02*
X-350000Y46500000D01*
X250000Y46900000D02*
X250000Y46100000D01*
X-350000Y46500000D02*
X250000Y46900000D01*
X-350000Y46500000D02*
X-350000Y45950000D01*
X-350000Y46500000D02*
X-350000Y47050000D01*
X-750000Y46500000D02*
X-350000Y46500000D01*
%TO.C,D5*%
X250000Y63500000D02*
X750000Y63500000D01*
X250000Y63100000D02*
X-350000Y63500000D01*
X250000Y63900000D02*
X250000Y63100000D01*
X-350000Y63500000D02*
X250000Y63900000D01*
X-350000Y63500000D02*
X-350000Y62950000D01*
X-350000Y63500000D02*
X-350000Y64050000D01*
X-750000Y63500000D02*
X-350000Y63500000D01*
%TO.C,D6*%
X18250000Y-4500000D02*
X18750000Y-4500000D01*
X18250000Y-4900000D02*
X17650000Y-4500000D01*
X18250000Y-4100000D02*
X18250000Y-4900000D01*
X17650000Y-4500000D02*
X18250000Y-4100000D01*
X17650000Y-4500000D02*
X17650000Y-5050000D01*
X17650000Y-4500000D02*
X17650000Y-3950000D01*
X17250000Y-4500000D02*
X17650000Y-4500000D01*
%TO.C,D7*%
X18250000Y12500000D02*
X18750000Y12500000D01*
X18250000Y12100000D02*
X17650000Y12500000D01*
X18250000Y12900000D02*
X18250000Y12100000D01*
X17650000Y12500000D02*
X18250000Y12900000D01*
X17650000Y12500000D02*
X17650000Y11950000D01*
X17650000Y12500000D02*
X17650000Y13050000D01*
X17250000Y12500000D02*
X17650000Y12500000D01*
%TO.C,D8*%
X18250000Y29500000D02*
X18750000Y29500000D01*
X18250000Y29100000D02*
X17650000Y29500000D01*
X18250000Y29900000D02*
X18250000Y29100000D01*
X17650000Y29500000D02*
X18250000Y29900000D01*
X17650000Y29500000D02*
X17650000Y28950000D01*
X17650000Y29500000D02*
X17650000Y30050000D01*
X17250000Y29500000D02*
X17650000Y29500000D01*
%TO.C,D9*%
X18250000Y46500000D02*
X18750000Y46500000D01*
X18250000Y46100000D02*
X17650000Y46500000D01*
X18250000Y46900000D02*
X18250000Y46100000D01*
X17650000Y46500000D02*
X18250000Y46900000D01*
X17650000Y46500000D02*
X17650000Y45950000D01*
X17650000Y46500000D02*
X17650000Y47050000D01*
X17250000Y46500000D02*
X17650000Y46500000D01*
%TO.C,D10*%
X18250000Y63500000D02*
X18750000Y63500000D01*
X18250000Y63100000D02*
X17650000Y63500000D01*
X18250000Y63900000D02*
X18250000Y63100000D01*
X17650000Y63500000D02*
X18250000Y63900000D01*
X17650000Y63500000D02*
X17650000Y62950000D01*
X17650000Y63500000D02*
X17650000Y64050000D01*
X17250000Y63500000D02*
X17650000Y63500000D01*
%TO.C,D11*%
X36250000Y-4500000D02*
X36750000Y-4500000D01*
X36250000Y-4900000D02*
X35650000Y-4500000D01*
X36250000Y-4100000D02*
X36250000Y-4900000D01*
X35650000Y-4500000D02*
X36250000Y-4100000D01*
X35650000Y-4500000D02*
X35650000Y-5050000D01*
X35650000Y-4500000D02*
X35650000Y-3950000D01*
X35250000Y-4500000D02*
X35650000Y-4500000D01*
%TO.C,D12*%
X36250000Y12500000D02*
X36750000Y12500000D01*
X36250000Y12100000D02*
X35650000Y12500000D01*
X36250000Y12900000D02*
X36250000Y12100000D01*
X35650000Y12500000D02*
X36250000Y12900000D01*
X35650000Y12500000D02*
X35650000Y11950000D01*
X35650000Y12500000D02*
X35650000Y13050000D01*
X35250000Y12500000D02*
X35650000Y12500000D01*
%TO.C,D13*%
X36250000Y29500000D02*
X36750000Y29500000D01*
X36250000Y29100000D02*
X35650000Y29500000D01*
X36250000Y29900000D02*
X36250000Y29100000D01*
X35650000Y29500000D02*
X36250000Y29900000D01*
X35650000Y29500000D02*
X35650000Y28950000D01*
X35650000Y29500000D02*
X35650000Y30050000D01*
X35250000Y29500000D02*
X35650000Y29500000D01*
%TO.C,D14*%
X36250000Y46500000D02*
X36750000Y46500000D01*
X36250000Y46100000D02*
X35650000Y46500000D01*
X36250000Y46900000D02*
X36250000Y46100000D01*
X35650000Y46500000D02*
X36250000Y46900000D01*
X35650000Y46500000D02*
X35650000Y45950000D01*
X35650000Y46500000D02*
X35650000Y47050000D01*
X35250000Y46500000D02*
X35650000Y46500000D01*
%TO.C,D15*%
X36250000Y63500000D02*
X36750000Y63500000D01*
X36250000Y63100000D02*
X35650000Y63500000D01*
X36250000Y63900000D02*
X36250000Y63100000D01*
X35650000Y63500000D02*
X36250000Y63900000D01*
X35650000Y63500000D02*
X35650000Y62950000D01*
X35650000Y63500000D02*
X35650000Y64050000D01*
X35250000Y63500000D02*
X35650000Y63500000D01*
%TO.C,D16*%
X54250000Y-4500000D02*
X54750000Y-4500000D01*
X54250000Y-4900000D02*
X53650000Y-4500000D01*
X54250000Y-4100000D02*
X54250000Y-4900000D01*
X53650000Y-4500000D02*
X54250000Y-4100000D01*
X53650000Y-4500000D02*
X53650000Y-5050000D01*
X53650000Y-4500000D02*
X53650000Y-3950000D01*
X53250000Y-4500000D02*
X53650000Y-4500000D01*
%TO.C,D17*%
X54250000Y12500000D02*
X54750000Y12500000D01*
X54250000Y12100000D02*
X53650000Y12500000D01*
X54250000Y12900000D02*
X54250000Y12100000D01*
X53650000Y12500000D02*
X54250000Y12900000D01*
X53650000Y12500000D02*
X53650000Y11950000D01*
X53650000Y12500000D02*
X53650000Y13050000D01*
X53250000Y12500000D02*
X53650000Y12500000D01*
%TO.C,D18*%
X54250000Y29500000D02*
X54750000Y29500000D01*
X54250000Y29100000D02*
X53650000Y29500000D01*
X54250000Y29900000D02*
X54250000Y29100000D01*
X53650000Y29500000D02*
X54250000Y29900000D01*
X53650000Y29500000D02*
X53650000Y28950000D01*
X53650000Y29500000D02*
X53650000Y30050000D01*
X53250000Y29500000D02*
X53650000Y29500000D01*
%TO.C,D19*%
X54250000Y46500000D02*
X54750000Y46500000D01*
X54250000Y46100000D02*
X53650000Y46500000D01*
X54250000Y46900000D02*
X54250000Y46100000D01*
X53650000Y46500000D02*
X54250000Y46900000D01*
X53650000Y46500000D02*
X53650000Y45950000D01*
X53650000Y46500000D02*
X53650000Y47050000D01*
X53250000Y46500000D02*
X53650000Y46500000D01*
%TO.C,D20*%
X54250000Y63500000D02*
X54750000Y63500000D01*
X54250000Y63100000D02*
X53650000Y63500000D01*
X54250000Y63900000D02*
X54250000Y63100000D01*
X53650000Y63500000D02*
X54250000Y63900000D01*
X53650000Y63500000D02*
X53650000Y62950000D01*
X53650000Y63500000D02*
X53650000Y64050000D01*
X53250000Y63500000D02*
X53650000Y63500000D01*
%TD*%
D12*
%TO.C,MCU1*%
X-26620000Y72970000D03*
D13*
X-26620000Y70430000D03*
X-26620000Y67890000D03*
X-26620000Y65350000D03*
X-26620000Y62810000D03*
X-26620000Y60270000D03*
X-26620000Y57730000D03*
X-26620000Y55190000D03*
X-26620000Y52650000D03*
X-26620000Y50110000D03*
X-26620000Y47570000D03*
X-26620000Y45030000D03*
X-11380000Y72970000D03*
X-11380000Y70430000D03*
X-11380000Y67890000D03*
X-11380000Y65350000D03*
X-11380000Y62810000D03*
X-11380000Y60270000D03*
X-11380000Y57730000D03*
X-11380000Y55190000D03*
X-11380000Y52650000D03*
X-11380000Y50110000D03*
X-11380000Y47570000D03*
X-11380000Y45030000D03*
%TD*%
M02*
