%TF.GenerationSoftware,KiCad,Pcbnew,(6.0.4)*%
%TF.CreationDate,2022-07-18T01:28:08-04:00*%
%TF.ProjectId,lisa,6c697361-2e6b-4696-9361-645f70636258,v1.0.0*%
%TF.SameCoordinates,Original*%
%TF.FileFunction,Legend,Top*%
%TF.FilePolarity,Positive*%
%FSLAX46Y46*%
G04 Gerber Fmt 4.6, Leading zero omitted, Abs format (unit mm)*
G04 Created by KiCad (PCBNEW (6.0.4)) date 2022-07-18 01:28:08*
%MOMM*%
%LPD*%
G01*
G04 APERTURE LIST*
%ADD10C,0.300000*%
%ADD11C,0.150000*%
%ADD12C,0.100000*%
%ADD13R,1.752600X1.752600*%
%ADD14C,1.752600*%
G04 APERTURE END LIST*
D10*
%TO.C,G\u002A\u002A\u002A*%
X18957428Y28862000D02*
X18812285Y28934571D01*
X18594571Y28934571D01*
X18376857Y28862000D01*
X18231714Y28716857D01*
X18159142Y28571714D01*
X18086571Y28281428D01*
X18086571Y28063714D01*
X18159142Y27773428D01*
X18231714Y27628285D01*
X18376857Y27483142D01*
X18594571Y27410571D01*
X18739714Y27410571D01*
X18957428Y27483142D01*
X19030000Y27555714D01*
X19030000Y28063714D01*
X18739714Y28063714D01*
X19900857Y28934571D02*
X19900857Y28571714D01*
X19538000Y28716857D02*
X19900857Y28571714D01*
X20263714Y28716857D01*
X19683142Y28281428D02*
X19900857Y28571714D01*
X20118571Y28281428D01*
X21062000Y28934571D02*
X21062000Y28571714D01*
X20699142Y28716857D02*
X21062000Y28571714D01*
X21424857Y28716857D01*
X20844285Y28281428D02*
X21062000Y28571714D01*
X21279714Y28281428D01*
X22223142Y28934571D02*
X22223142Y28571714D01*
X21860285Y28716857D02*
X22223142Y28571714D01*
X22586000Y28716857D01*
X22005428Y28281428D02*
X22223142Y28571714D01*
X22440857Y28281428D01*
D11*
%TO.C,MCU1*%
X-24352380Y72608095D02*
X-24619047Y72989047D01*
X-24809523Y72608095D02*
X-24809523Y73408095D01*
X-24504761Y73408095D01*
X-24428571Y73370000D01*
X-24390476Y73331904D01*
X-24352380Y73255714D01*
X-24352380Y73141428D01*
X-24390476Y73065238D01*
X-24428571Y73027142D01*
X-24504761Y72989047D01*
X-24809523Y72989047D01*
X-24047619Y72836666D02*
X-23666666Y72836666D01*
X-24123809Y72608095D02*
X-23857142Y73408095D01*
X-23590476Y72608095D01*
X-23400000Y73408095D02*
X-23209523Y72608095D01*
X-23057142Y73179523D01*
X-22904761Y72608095D01*
X-22714285Y73408095D01*
X-24409523Y70830000D02*
X-24485714Y70868095D01*
X-24600000Y70868095D01*
X-24714285Y70830000D01*
X-24790476Y70753809D01*
X-24828571Y70677619D01*
X-24866666Y70525238D01*
X-24866666Y70410952D01*
X-24828571Y70258571D01*
X-24790476Y70182380D01*
X-24714285Y70106190D01*
X-24600000Y70068095D01*
X-24523809Y70068095D01*
X-24409523Y70106190D01*
X-24371428Y70144285D01*
X-24371428Y70410952D01*
X-24523809Y70410952D01*
X-24028571Y70068095D02*
X-24028571Y70868095D01*
X-23571428Y70068095D01*
X-23571428Y70868095D01*
X-23190476Y70068095D02*
X-23190476Y70868095D01*
X-23000000Y70868095D01*
X-22885714Y70830000D01*
X-22809523Y70753809D01*
X-22771428Y70677619D01*
X-22733333Y70525238D01*
X-22733333Y70410952D01*
X-22771428Y70258571D01*
X-22809523Y70182380D01*
X-22885714Y70106190D01*
X-23000000Y70068095D01*
X-23190476Y70068095D01*
X-24238095Y67528095D02*
X-24504761Y67909047D01*
X-24695238Y67528095D02*
X-24695238Y68328095D01*
X-24390476Y68328095D01*
X-24314285Y68290000D01*
X-24276190Y68251904D01*
X-24238095Y68175714D01*
X-24238095Y68061428D01*
X-24276190Y67985238D01*
X-24314285Y67947142D01*
X-24390476Y67909047D01*
X-24695238Y67909047D01*
X-23933333Y67566190D02*
X-23819047Y67528095D01*
X-23628571Y67528095D01*
X-23552380Y67566190D01*
X-23514285Y67604285D01*
X-23476190Y67680476D01*
X-23476190Y67756666D01*
X-23514285Y67832857D01*
X-23552380Y67870952D01*
X-23628571Y67909047D01*
X-23780952Y67947142D01*
X-23857142Y67985238D01*
X-23895238Y68023333D01*
X-23933333Y68099523D01*
X-23933333Y68175714D01*
X-23895238Y68251904D01*
X-23857142Y68290000D01*
X-23780952Y68328095D01*
X-23590476Y68328095D01*
X-23476190Y68290000D01*
X-23247619Y68328095D02*
X-22790476Y68328095D01*
X-23019047Y67528095D02*
X-23019047Y68328095D01*
X-24866666Y65788095D02*
X-24600000Y64988095D01*
X-24333333Y65788095D01*
X-23609523Y65064285D02*
X-23647619Y65026190D01*
X-23761904Y64988095D01*
X-23838095Y64988095D01*
X-23952380Y65026190D01*
X-24028571Y65102380D01*
X-24066666Y65178571D01*
X-24104761Y65330952D01*
X-24104761Y65445238D01*
X-24066666Y65597619D01*
X-24028571Y65673809D01*
X-23952380Y65750000D01*
X-23838095Y65788095D01*
X-23761904Y65788095D01*
X-23647619Y65750000D01*
X-23609523Y65711904D01*
X-22809523Y65064285D02*
X-22847619Y65026190D01*
X-22961904Y64988095D01*
X-23038095Y64988095D01*
X-23152380Y65026190D01*
X-23228571Y65102380D01*
X-23266666Y65178571D01*
X-23304761Y65330952D01*
X-23304761Y65445238D01*
X-23266666Y65597619D01*
X-23228571Y65673809D01*
X-23152380Y65750000D01*
X-23038095Y65788095D01*
X-22961904Y65788095D01*
X-22847619Y65750000D01*
X-22809523Y65711904D01*
X-24066666Y62867142D02*
X-24333333Y62867142D01*
X-24333333Y62448095D02*
X-24333333Y63248095D01*
X-23952380Y63248095D01*
X-23304761Y62981428D02*
X-23304761Y62448095D01*
X-23495238Y63286190D02*
X-23685714Y62714761D01*
X-23190476Y62714761D01*
X-24066666Y60327142D02*
X-24333333Y60327142D01*
X-24333333Y59908095D02*
X-24333333Y60708095D01*
X-23952380Y60708095D01*
X-23266666Y60708095D02*
X-23647619Y60708095D01*
X-23685714Y60327142D01*
X-23647619Y60365238D01*
X-23571428Y60403333D01*
X-23380952Y60403333D01*
X-23304761Y60365238D01*
X-23266666Y60327142D01*
X-23228571Y60250952D01*
X-23228571Y60060476D01*
X-23266666Y59984285D01*
X-23304761Y59946190D01*
X-23380952Y59908095D01*
X-23571428Y59908095D01*
X-23647619Y59946190D01*
X-23685714Y59984285D01*
X-24066666Y57787142D02*
X-24333333Y57787142D01*
X-24333333Y57368095D02*
X-24333333Y58168095D01*
X-23952380Y58168095D01*
X-23304761Y58168095D02*
X-23457142Y58168095D01*
X-23533333Y58130000D01*
X-23571428Y58091904D01*
X-23647619Y57977619D01*
X-23685714Y57825238D01*
X-23685714Y57520476D01*
X-23647619Y57444285D01*
X-23609523Y57406190D01*
X-23533333Y57368095D01*
X-23380952Y57368095D01*
X-23304761Y57406190D01*
X-23266666Y57444285D01*
X-23228571Y57520476D01*
X-23228571Y57710952D01*
X-23266666Y57787142D01*
X-23304761Y57825238D01*
X-23380952Y57863333D01*
X-23533333Y57863333D01*
X-23609523Y57825238D01*
X-23647619Y57787142D01*
X-23685714Y57710952D01*
X-24066666Y55247142D02*
X-24333333Y55247142D01*
X-24333333Y54828095D02*
X-24333333Y55628095D01*
X-23952380Y55628095D01*
X-23723809Y55628095D02*
X-23190476Y55628095D01*
X-23533333Y54828095D01*
X-24123809Y52707142D02*
X-24009523Y52669047D01*
X-23971428Y52630952D01*
X-23933333Y52554761D01*
X-23933333Y52440476D01*
X-23971428Y52364285D01*
X-24009523Y52326190D01*
X-24085714Y52288095D01*
X-24390476Y52288095D01*
X-24390476Y53088095D01*
X-24123809Y53088095D01*
X-24047619Y53050000D01*
X-24009523Y53011904D01*
X-23971428Y52935714D01*
X-23971428Y52859523D01*
X-24009523Y52783333D01*
X-24047619Y52745238D01*
X-24123809Y52707142D01*
X-24390476Y52707142D01*
X-23171428Y52288095D02*
X-23628571Y52288095D01*
X-23400000Y52288095D02*
X-23400000Y53088095D01*
X-23476190Y52973809D01*
X-23552380Y52897619D01*
X-23628571Y52859523D01*
X-24123809Y50167142D02*
X-24009523Y50129047D01*
X-23971428Y50090952D01*
X-23933333Y50014761D01*
X-23933333Y49900476D01*
X-23971428Y49824285D01*
X-24009523Y49786190D01*
X-24085714Y49748095D01*
X-24390476Y49748095D01*
X-24390476Y50548095D01*
X-24123809Y50548095D01*
X-24047619Y50510000D01*
X-24009523Y50471904D01*
X-23971428Y50395714D01*
X-23971428Y50319523D01*
X-24009523Y50243333D01*
X-24047619Y50205238D01*
X-24123809Y50167142D01*
X-24390476Y50167142D01*
X-23666666Y50548095D02*
X-23171428Y50548095D01*
X-23438095Y50243333D01*
X-23323809Y50243333D01*
X-23247619Y50205238D01*
X-23209523Y50167142D01*
X-23171428Y50090952D01*
X-23171428Y49900476D01*
X-23209523Y49824285D01*
X-23247619Y49786190D01*
X-23323809Y49748095D01*
X-23552380Y49748095D01*
X-23628571Y49786190D01*
X-23666666Y49824285D01*
X-24123809Y47627142D02*
X-24009523Y47589047D01*
X-23971428Y47550952D01*
X-23933333Y47474761D01*
X-23933333Y47360476D01*
X-23971428Y47284285D01*
X-24009523Y47246190D01*
X-24085714Y47208095D01*
X-24390476Y47208095D01*
X-24390476Y48008095D01*
X-24123809Y48008095D01*
X-24047619Y47970000D01*
X-24009523Y47931904D01*
X-23971428Y47855714D01*
X-23971428Y47779523D01*
X-24009523Y47703333D01*
X-24047619Y47665238D01*
X-24123809Y47627142D01*
X-24390476Y47627142D01*
X-23628571Y47931904D02*
X-23590476Y47970000D01*
X-23514285Y48008095D01*
X-23323809Y48008095D01*
X-23247619Y47970000D01*
X-23209523Y47931904D01*
X-23171428Y47855714D01*
X-23171428Y47779523D01*
X-23209523Y47665238D01*
X-23666666Y47208095D01*
X-23171428Y47208095D01*
X-24123809Y45087142D02*
X-24009523Y45049047D01*
X-23971428Y45010952D01*
X-23933333Y44934761D01*
X-23933333Y44820476D01*
X-23971428Y44744285D01*
X-24009523Y44706190D01*
X-24085714Y44668095D01*
X-24390476Y44668095D01*
X-24390476Y45468095D01*
X-24123809Y45468095D01*
X-24047619Y45430000D01*
X-24009523Y45391904D01*
X-23971428Y45315714D01*
X-23971428Y45239523D01*
X-24009523Y45163333D01*
X-24047619Y45125238D01*
X-24123809Y45087142D01*
X-24390476Y45087142D01*
X-23247619Y45468095D02*
X-23400000Y45468095D01*
X-23476190Y45430000D01*
X-23514285Y45391904D01*
X-23590476Y45277619D01*
X-23628571Y45125238D01*
X-23628571Y44820476D01*
X-23590476Y44744285D01*
X-23552380Y44706190D01*
X-23476190Y44668095D01*
X-23323809Y44668095D01*
X-23247619Y44706190D01*
X-23209523Y44744285D01*
X-23171428Y44820476D01*
X-23171428Y45010952D01*
X-23209523Y45087142D01*
X-23247619Y45125238D01*
X-23323809Y45163333D01*
X-23476190Y45163333D01*
X-23552380Y45125238D01*
X-23590476Y45087142D01*
X-23628571Y45010952D01*
X-14790476Y72608095D02*
X-14790476Y73408095D01*
X-14600000Y73408095D01*
X-14485714Y73370000D01*
X-14409523Y73293809D01*
X-14371428Y73217619D01*
X-14333333Y73065238D01*
X-14333333Y72950952D01*
X-14371428Y72798571D01*
X-14409523Y72722380D01*
X-14485714Y72646190D01*
X-14600000Y72608095D01*
X-14790476Y72608095D01*
X-14066666Y73408095D02*
X-13571428Y73408095D01*
X-13838095Y73103333D01*
X-13723809Y73103333D01*
X-13647619Y73065238D01*
X-13609523Y73027142D01*
X-13571428Y72950952D01*
X-13571428Y72760476D01*
X-13609523Y72684285D01*
X-13647619Y72646190D01*
X-13723809Y72608095D01*
X-13952380Y72608095D01*
X-14028571Y72646190D01*
X-14066666Y72684285D01*
X-14790476Y70068095D02*
X-14790476Y70868095D01*
X-14600000Y70868095D01*
X-14485714Y70830000D01*
X-14409523Y70753809D01*
X-14371428Y70677619D01*
X-14333333Y70525238D01*
X-14333333Y70410952D01*
X-14371428Y70258571D01*
X-14409523Y70182380D01*
X-14485714Y70106190D01*
X-14600000Y70068095D01*
X-14790476Y70068095D01*
X-14028571Y70791904D02*
X-13990476Y70830000D01*
X-13914285Y70868095D01*
X-13723809Y70868095D01*
X-13647619Y70830000D01*
X-13609523Y70791904D01*
X-13571428Y70715714D01*
X-13571428Y70639523D01*
X-13609523Y70525238D01*
X-14066666Y70068095D01*
X-13571428Y70068095D01*
X-14809523Y68290000D02*
X-14885714Y68328095D01*
X-15000000Y68328095D01*
X-15114285Y68290000D01*
X-15190476Y68213809D01*
X-15228571Y68137619D01*
X-15266666Y67985238D01*
X-15266666Y67870952D01*
X-15228571Y67718571D01*
X-15190476Y67642380D01*
X-15114285Y67566190D01*
X-15000000Y67528095D01*
X-14923809Y67528095D01*
X-14809523Y67566190D01*
X-14771428Y67604285D01*
X-14771428Y67870952D01*
X-14923809Y67870952D01*
X-14428571Y67528095D02*
X-14428571Y68328095D01*
X-13971428Y67528095D01*
X-13971428Y68328095D01*
X-13590476Y67528095D02*
X-13590476Y68328095D01*
X-13400000Y68328095D01*
X-13285714Y68290000D01*
X-13209523Y68213809D01*
X-13171428Y68137619D01*
X-13133333Y67985238D01*
X-13133333Y67870952D01*
X-13171428Y67718571D01*
X-13209523Y67642380D01*
X-13285714Y67566190D01*
X-13400000Y67528095D01*
X-13590476Y67528095D01*
X-14809523Y65750000D02*
X-14885714Y65788095D01*
X-15000000Y65788095D01*
X-15114285Y65750000D01*
X-15190476Y65673809D01*
X-15228571Y65597619D01*
X-15266666Y65445238D01*
X-15266666Y65330952D01*
X-15228571Y65178571D01*
X-15190476Y65102380D01*
X-15114285Y65026190D01*
X-15000000Y64988095D01*
X-14923809Y64988095D01*
X-14809523Y65026190D01*
X-14771428Y65064285D01*
X-14771428Y65330952D01*
X-14923809Y65330952D01*
X-14428571Y64988095D02*
X-14428571Y65788095D01*
X-13971428Y64988095D01*
X-13971428Y65788095D01*
X-13590476Y64988095D02*
X-13590476Y65788095D01*
X-13400000Y65788095D01*
X-13285714Y65750000D01*
X-13209523Y65673809D01*
X-13171428Y65597619D01*
X-13133333Y65445238D01*
X-13133333Y65330952D01*
X-13171428Y65178571D01*
X-13209523Y65102380D01*
X-13285714Y65026190D01*
X-13400000Y64988095D01*
X-13590476Y64988095D01*
X-14790476Y62448095D02*
X-14790476Y63248095D01*
X-14600000Y63248095D01*
X-14485714Y63210000D01*
X-14409523Y63133809D01*
X-14371428Y63057619D01*
X-14333333Y62905238D01*
X-14333333Y62790952D01*
X-14371428Y62638571D01*
X-14409523Y62562380D01*
X-14485714Y62486190D01*
X-14600000Y62448095D01*
X-14790476Y62448095D01*
X-13571428Y62448095D02*
X-14028571Y62448095D01*
X-13800000Y62448095D02*
X-13800000Y63248095D01*
X-13876190Y63133809D01*
X-13952380Y63057619D01*
X-14028571Y63019523D01*
X-14790476Y59908095D02*
X-14790476Y60708095D01*
X-14600000Y60708095D01*
X-14485714Y60670000D01*
X-14409523Y60593809D01*
X-14371428Y60517619D01*
X-14333333Y60365238D01*
X-14333333Y60250952D01*
X-14371428Y60098571D01*
X-14409523Y60022380D01*
X-14485714Y59946190D01*
X-14600000Y59908095D01*
X-14790476Y59908095D01*
X-13838095Y60708095D02*
X-13761904Y60708095D01*
X-13685714Y60670000D01*
X-13647619Y60631904D01*
X-13609523Y60555714D01*
X-13571428Y60403333D01*
X-13571428Y60212857D01*
X-13609523Y60060476D01*
X-13647619Y59984285D01*
X-13685714Y59946190D01*
X-13761904Y59908095D01*
X-13838095Y59908095D01*
X-13914285Y59946190D01*
X-13952380Y59984285D01*
X-13990476Y60060476D01*
X-14028571Y60212857D01*
X-14028571Y60403333D01*
X-13990476Y60555714D01*
X-13952380Y60631904D01*
X-13914285Y60670000D01*
X-13838095Y60708095D01*
X-14790476Y57368095D02*
X-14790476Y58168095D01*
X-14600000Y58168095D01*
X-14485714Y58130000D01*
X-14409523Y58053809D01*
X-14371428Y57977619D01*
X-14333333Y57825238D01*
X-14333333Y57710952D01*
X-14371428Y57558571D01*
X-14409523Y57482380D01*
X-14485714Y57406190D01*
X-14600000Y57368095D01*
X-14790476Y57368095D01*
X-13647619Y57901428D02*
X-13647619Y57368095D01*
X-13838095Y58206190D02*
X-14028571Y57634761D01*
X-13533333Y57634761D01*
X-14333333Y54904285D02*
X-14371428Y54866190D01*
X-14485714Y54828095D01*
X-14561904Y54828095D01*
X-14676190Y54866190D01*
X-14752380Y54942380D01*
X-14790476Y55018571D01*
X-14828571Y55170952D01*
X-14828571Y55285238D01*
X-14790476Y55437619D01*
X-14752380Y55513809D01*
X-14676190Y55590000D01*
X-14561904Y55628095D01*
X-14485714Y55628095D01*
X-14371428Y55590000D01*
X-14333333Y55551904D01*
X-13647619Y55628095D02*
X-13800000Y55628095D01*
X-13876190Y55590000D01*
X-13914285Y55551904D01*
X-13990476Y55437619D01*
X-14028571Y55285238D01*
X-14028571Y54980476D01*
X-13990476Y54904285D01*
X-13952380Y54866190D01*
X-13876190Y54828095D01*
X-13723809Y54828095D01*
X-13647619Y54866190D01*
X-13609523Y54904285D01*
X-13571428Y54980476D01*
X-13571428Y55170952D01*
X-13609523Y55247142D01*
X-13647619Y55285238D01*
X-13723809Y55323333D01*
X-13876190Y55323333D01*
X-13952380Y55285238D01*
X-13990476Y55247142D01*
X-14028571Y55170952D01*
X-14790476Y52288095D02*
X-14790476Y53088095D01*
X-14600000Y53088095D01*
X-14485714Y53050000D01*
X-14409523Y52973809D01*
X-14371428Y52897619D01*
X-14333333Y52745238D01*
X-14333333Y52630952D01*
X-14371428Y52478571D01*
X-14409523Y52402380D01*
X-14485714Y52326190D01*
X-14600000Y52288095D01*
X-14790476Y52288095D01*
X-14066666Y53088095D02*
X-13533333Y53088095D01*
X-13876190Y52288095D01*
X-14752380Y50167142D02*
X-14485714Y50167142D01*
X-14371428Y49748095D02*
X-14752380Y49748095D01*
X-14752380Y50548095D01*
X-14371428Y50548095D01*
X-13685714Y50548095D02*
X-13838095Y50548095D01*
X-13914285Y50510000D01*
X-13952380Y50471904D01*
X-14028571Y50357619D01*
X-14066666Y50205238D01*
X-14066666Y49900476D01*
X-14028571Y49824285D01*
X-13990476Y49786190D01*
X-13914285Y49748095D01*
X-13761904Y49748095D01*
X-13685714Y49786190D01*
X-13647619Y49824285D01*
X-13609523Y49900476D01*
X-13609523Y50090952D01*
X-13647619Y50167142D01*
X-13685714Y50205238D01*
X-13761904Y50243333D01*
X-13914285Y50243333D01*
X-13990476Y50205238D01*
X-14028571Y50167142D01*
X-14066666Y50090952D01*
X-14523809Y47627142D02*
X-14409523Y47589047D01*
X-14371428Y47550952D01*
X-14333333Y47474761D01*
X-14333333Y47360476D01*
X-14371428Y47284285D01*
X-14409523Y47246190D01*
X-14485714Y47208095D01*
X-14790476Y47208095D01*
X-14790476Y48008095D01*
X-14523809Y48008095D01*
X-14447619Y47970000D01*
X-14409523Y47931904D01*
X-14371428Y47855714D01*
X-14371428Y47779523D01*
X-14409523Y47703333D01*
X-14447619Y47665238D01*
X-14523809Y47627142D01*
X-14790476Y47627142D01*
X-13647619Y47741428D02*
X-13647619Y47208095D01*
X-13838095Y48046190D02*
X-14028571Y47474761D01*
X-13533333Y47474761D01*
X-14523809Y45087142D02*
X-14409523Y45049047D01*
X-14371428Y45010952D01*
X-14333333Y44934761D01*
X-14333333Y44820476D01*
X-14371428Y44744285D01*
X-14409523Y44706190D01*
X-14485714Y44668095D01*
X-14790476Y44668095D01*
X-14790476Y45468095D01*
X-14523809Y45468095D01*
X-14447619Y45430000D01*
X-14409523Y45391904D01*
X-14371428Y45315714D01*
X-14371428Y45239523D01*
X-14409523Y45163333D01*
X-14447619Y45125238D01*
X-14523809Y45087142D01*
X-14790476Y45087142D01*
X-13609523Y45468095D02*
X-13990476Y45468095D01*
X-14028571Y45087142D01*
X-13990476Y45125238D01*
X-13914285Y45163333D01*
X-13723809Y45163333D01*
X-13647619Y45125238D01*
X-13609523Y45087142D01*
X-13571428Y45010952D01*
X-13571428Y44820476D01*
X-13609523Y44744285D01*
X-13647619Y44706190D01*
X-13723809Y44668095D01*
X-13914285Y44668095D01*
X-13990476Y44706190D01*
X-14028571Y44744285D01*
%TO.C,G\u002A\u002A\u002A*%
G36*
X-21029546Y39640169D02*
G01*
X-20509514Y39321602D01*
X-19997960Y39064560D01*
X-19377278Y38818942D01*
X-18529861Y38534648D01*
X-18156982Y38416436D01*
X-17358476Y38184843D01*
X-16640206Y38033358D01*
X-15874743Y37946079D01*
X-14934658Y37907103D01*
X-14018785Y37900000D01*
X-12845511Y37885223D01*
X-12034683Y37838596D01*
X-11549758Y37756683D01*
X-11361804Y37650000D01*
X-11251689Y37369965D01*
X-11067116Y36784555D01*
X-10832657Y35975941D01*
X-10572888Y35026296D01*
X-10539394Y34900000D01*
X-10269300Y33885126D01*
X-10016428Y32947976D01*
X-9808406Y32190118D01*
X-9672862Y31713116D01*
X-9668944Y31700000D01*
X-9421831Y30740738D01*
X-9357663Y30043062D01*
X-9482718Y29509687D01*
X-9803274Y29043329D01*
X-9843164Y29000000D01*
X-10319584Y28441315D01*
X-10958958Y27618157D01*
X-11708081Y26602617D01*
X-12513749Y25466784D01*
X-13304045Y24310676D01*
X-13819327Y23518137D01*
X-14210293Y22829987D01*
X-14493980Y22170719D01*
X-14687425Y21464825D01*
X-14807668Y20636798D01*
X-14871744Y19611130D01*
X-14896692Y18312315D01*
X-14900000Y17237724D01*
X-14908654Y15725664D01*
X-14938596Y14528093D01*
X-14995794Y13559793D01*
X-15086221Y12735546D01*
X-15215846Y11970134D01*
X-15295672Y11589869D01*
X-15606973Y9492184D01*
X-15683843Y7182415D01*
X-15538901Y4763064D01*
X-15184768Y2336636D01*
X-14634064Y5634D01*
X-13899407Y-2127437D01*
X-13495877Y-3028935D01*
X-12538964Y-4646964D01*
X-11300751Y-6157780D01*
X-10712747Y-6817566D01*
X-10246289Y-7398358D01*
X-9960672Y-7822929D01*
X-9900000Y-7982183D01*
X-9923596Y-8160406D01*
X-9999102Y-8518706D01*
X-10133595Y-9084786D01*
X-10334154Y-9886347D01*
X-10607857Y-10951093D01*
X-10961781Y-12306724D01*
X-11403004Y-13980944D01*
X-11938604Y-16001453D01*
X-12204043Y-17000000D01*
X-12388597Y-17694844D01*
X-12626884Y-18593396D01*
X-12870375Y-19512654D01*
X-12893493Y-19600000D01*
X-13103894Y-20389537D01*
X-13285020Y-21059407D01*
X-13404825Y-21491355D01*
X-13421946Y-21550000D01*
X-13471887Y-21640516D01*
X-13587297Y-21714001D01*
X-13806220Y-21772213D01*
X-14166699Y-21816914D01*
X-14706779Y-21849864D01*
X-15464504Y-21872823D01*
X-16477918Y-21887553D01*
X-17785066Y-21895813D01*
X-19423991Y-21899365D01*
X-20985052Y-21900000D01*
X-28443148Y-21900000D01*
X-28891735Y-20150000D01*
X-29115037Y-19302103D01*
X-29323549Y-18550644D01*
X-29482833Y-18018379D01*
X-29522970Y-17900000D01*
X-29552148Y-17620079D01*
X-29578260Y-16964100D01*
X-29601134Y-15955995D01*
X-29620599Y-14619695D01*
X-29636483Y-12979133D01*
X-29648613Y-11058239D01*
X-29656820Y-8880945D01*
X-29660930Y-6471184D01*
X-29660773Y-3852885D01*
X-29656176Y-1049982D01*
X-29652810Y200000D01*
X-29600000Y17800000D01*
X-28456490Y21700000D01*
X-27669982Y24335177D01*
X-26941204Y26680883D01*
X-26277299Y28715631D01*
X-25685414Y30417931D01*
X-25172693Y31766294D01*
X-24882972Y32447821D01*
X-24652030Y33012469D01*
X-24515666Y33449052D01*
X-24500001Y33557821D01*
X-24386455Y33943000D01*
X-24339583Y34010001D01*
X-24203459Y34258785D01*
X-23949096Y34798861D01*
X-23612075Y35552277D01*
X-23227979Y36441084D01*
X-23202946Y36500000D01*
X-22791933Y37440945D01*
X-22397705Y38295146D01*
X-22065443Y38967611D01*
X-21842909Y39359600D01*
X-21555737Y39723037D01*
X-21320407Y39790768D01*
X-21029546Y39640169D01*
G37*
G36*
X-76200Y35441747D02*
G01*
X9055Y35434108D01*
X1219379Y35228911D01*
X2729404Y34814464D01*
X4505374Y34202435D01*
X6513529Y33404492D01*
X8720113Y32432305D01*
X8800000Y32395507D01*
X10182313Y31764726D01*
X11392820Y31232558D01*
X12501920Y30775001D01*
X13580014Y30368056D01*
X14697502Y29987720D01*
X15924784Y29609992D01*
X17332258Y29210872D01*
X18990327Y28766357D01*
X20900000Y28270307D01*
X22238732Y27925304D01*
X23263576Y27659510D01*
X24048082Y27452681D01*
X24665800Y27284572D01*
X25190279Y27134937D01*
X25695071Y26983532D01*
X26253724Y26810111D01*
X26600000Y26701341D01*
X28244494Y26083561D01*
X29660197Y25348256D01*
X30800777Y24527088D01*
X31619905Y23651718D01*
X31975476Y23027846D01*
X32168130Y22434858D01*
X32395807Y21522505D01*
X32643818Y20368320D01*
X32897473Y19049836D01*
X33142085Y17644587D01*
X33362965Y16230106D01*
X33545425Y14883927D01*
X33591045Y14500000D01*
X33835736Y12353876D01*
X34050832Y10454541D01*
X34253256Y8651497D01*
X34459930Y6794248D01*
X34603094Y5500000D01*
X34729958Y4371819D01*
X34845513Y3415031D01*
X34962952Y2550927D01*
X35095474Y1700795D01*
X35256275Y785926D01*
X35458550Y-272391D01*
X35715497Y-1552865D01*
X36040310Y-3134207D01*
X36095242Y-3400000D01*
X36710105Y-6390860D01*
X37274347Y-9170140D01*
X37783605Y-11715164D01*
X38233514Y-14003258D01*
X38619707Y-16011748D01*
X38937820Y-17717959D01*
X39183487Y-19099216D01*
X39352345Y-20132846D01*
X39435337Y-20750000D01*
X39556982Y-21900000D01*
X5100000Y-21900000D01*
X5100000Y-21402848D01*
X5070206Y-21020299D01*
X4988900Y-20336705D01*
X4868190Y-19445933D01*
X4720185Y-18441845D01*
X4706514Y-18352848D01*
X4423526Y-16484639D01*
X4155618Y-14654464D01*
X3908458Y-12906155D01*
X3687711Y-11283542D01*
X3499048Y-9830454D01*
X3348134Y-8590724D01*
X3240639Y-7608181D01*
X3182229Y-6926655D01*
X3178573Y-6589977D01*
X3183117Y-6571874D01*
X3314390Y-6442187D01*
X3587758Y-6516096D01*
X4079734Y-6817845D01*
X4183986Y-6888982D01*
X4716099Y-7231581D01*
X5126026Y-7453291D01*
X5269368Y-7500000D01*
X5518651Y-7639524D01*
X5533333Y-7669058D01*
X5740915Y-7834301D01*
X6115837Y-7961439D01*
X6489719Y-8013269D01*
X6694183Y-7952593D01*
X6700000Y-7926812D01*
X6548700Y-7703635D01*
X6181355Y-7407118D01*
X6150000Y-7386320D01*
X5695623Y-7068991D01*
X5378465Y-6813319D01*
X5139061Y-6599463D01*
X4670183Y-6192927D01*
X4047807Y-5659289D01*
X3575952Y-5257508D01*
X2735227Y-4503523D01*
X1842490Y-3634565D01*
X948848Y-2708060D01*
X105409Y-1781437D01*
X-636721Y-912121D01*
X-1226435Y-157541D01*
X-1612624Y424877D01*
X-1737787Y713361D01*
X-1678304Y862124D01*
X-1389034Y983075D01*
X-812969Y1091442D01*
X83717Y1200000D01*
X1126239Y1335652D01*
X1769288Y1474427D01*
X2013273Y1609777D01*
X1858603Y1735159D01*
X1305687Y1844026D01*
X354936Y1929833D01*
X36939Y1947848D01*
X-886051Y2015991D01*
X-1702124Y2114312D01*
X-2300631Y2227505D01*
X-2520035Y2301526D01*
X-3424324Y2856862D01*
X-4509751Y3665491D01*
X-5709706Y4666668D01*
X-6957580Y5799646D01*
X-8186762Y7003680D01*
X-9330642Y8218025D01*
X-10322610Y9381934D01*
X-10423286Y9508977D01*
X-11025204Y10222385D01*
X-11435777Y10604962D01*
X-11651219Y10679176D01*
X-11667744Y10467496D01*
X-11481566Y9992392D01*
X-11088899Y9276334D01*
X-10593303Y8500000D01*
X-10050279Y7770206D01*
X-9332169Y6910463D01*
X-8558705Y6061163D01*
X-8209581Y5705006D01*
X-7586661Y5060248D01*
X-7088770Y4491885D01*
X-6776315Y4072178D01*
X-6700000Y3899252D01*
X-6752633Y3572354D01*
X-6901066Y2916422D01*
X-7131103Y1987003D01*
X-7428546Y839642D01*
X-7779201Y-470116D01*
X-8168868Y-1886724D01*
X-8284448Y-2300000D01*
X-8528309Y-3193660D01*
X-8762329Y-4092665D01*
X-8935278Y-4800000D01*
X-9152292Y-5600639D01*
X-9374862Y-6028525D01*
X-9646486Y-6109103D01*
X-10010664Y-5867814D01*
X-10283231Y-5588444D01*
X-11492006Y-4027008D01*
X-12576401Y-2173948D01*
X-13504256Y-121382D01*
X-14243409Y2038572D01*
X-14761702Y4213794D01*
X-15026974Y6312165D01*
X-15027166Y8000000D01*
X-14795606Y9996205D01*
X-14401267Y11946049D01*
X-13868344Y13775754D01*
X-13221035Y15411540D01*
X-12483534Y16779631D01*
X-11882103Y17589828D01*
X-11179460Y18192329D01*
X-10331038Y18535329D01*
X-9294127Y18622470D01*
X-8026018Y18457395D01*
X-6500000Y18048812D01*
X-3911987Y17212150D01*
X-1628278Y16431360D01*
X436945Y15673975D01*
X2369499Y14907531D01*
X4255205Y14099562D01*
X5800000Y13395740D01*
X7324644Y12685058D01*
X8533402Y12123178D01*
X9472517Y11689013D01*
X10188233Y11361477D01*
X10726794Y11119483D01*
X11134442Y10941944D01*
X11457422Y10807774D01*
X11600000Y10750997D01*
X12160791Y10508958D01*
X12581024Y10289698D01*
X12654833Y10239842D01*
X12929811Y10120086D01*
X13011074Y10144409D01*
X12947826Y10303340D01*
X12561668Y10602128D01*
X11836519Y11052300D01*
X11362760Y11325854D01*
X10877876Y11589803D01*
X10185445Y11951988D01*
X9360687Y12374752D01*
X8478824Y12820438D01*
X7615078Y13251387D01*
X6844670Y13629942D01*
X6242822Y13918445D01*
X5884754Y14079238D01*
X5821383Y14100000D01*
X5603747Y14178724D01*
X5114489Y14388763D01*
X4443822Y14690919D01*
X4157631Y14822915D01*
X3321531Y15208459D01*
X2516425Y15575497D01*
X1892494Y15855647D01*
X1800000Y15896402D01*
X1096546Y16204853D01*
X400565Y16510305D01*
X300000Y16554474D01*
X-619337Y16925781D01*
X-1749485Y17332048D01*
X-3014624Y17751138D01*
X-4338933Y18160914D01*
X-5646593Y18539242D01*
X-6861783Y18863983D01*
X-7908683Y19113001D01*
X-8711472Y19264161D01*
X-9103775Y19300000D01*
X-9596300Y19240544D01*
X-10294422Y19086601D01*
X-10873415Y18923701D01*
X-11616380Y18722861D01*
X-12036948Y18688270D01*
X-12166442Y18773701D01*
X-12122550Y19055875D01*
X-11925511Y19570977D01*
X-11641733Y20160527D01*
X-10918694Y21243715D01*
X-9944292Y22297120D01*
X-8849550Y23193476D01*
X-7995356Y23702249D01*
X-7620628Y23870976D01*
X-7258915Y23987598D01*
X-6833065Y24058782D01*
X-6265927Y24091195D01*
X-5480351Y24091504D01*
X-4399187Y24066375D01*
X-3938119Y24052847D01*
X-2935960Y24013253D01*
X-1992558Y23951354D01*
X-1052258Y23857776D01*
X-59403Y23723145D01*
X1041660Y23538083D01*
X2306588Y23293217D01*
X3791035Y22979170D01*
X5550657Y22586568D01*
X7641109Y22106035D01*
X7700000Y22092371D01*
X9078022Y21783999D01*
X10372378Y21515691D01*
X11525157Y21297594D01*
X12478445Y21139852D01*
X13174330Y21052612D01*
X13554900Y21046018D01*
X13596156Y21059429D01*
X13572622Y21182277D01*
X13245255Y21314762D01*
X13198900Y21326301D01*
X12807218Y21428765D01*
X12111050Y21620184D01*
X11190133Y21878271D01*
X10124200Y22180740D01*
X9400000Y22388103D01*
X7394053Y22957734D01*
X5690291Y23424558D01*
X4209923Y23807654D01*
X2874155Y24126102D01*
X1604196Y24398981D01*
X321253Y24645370D01*
X-573869Y24803256D01*
X-2417603Y25080100D01*
X-4095045Y25254892D01*
X-5556781Y25325914D01*
X-6753395Y25291447D01*
X-7635475Y25149774D01*
X-7900000Y25058006D01*
X-9225090Y24289321D01*
X-10484340Y23211620D01*
X-11614718Y21909001D01*
X-12553191Y20465565D01*
X-13236727Y18965410D01*
X-13602293Y17492634D01*
X-13608704Y17441375D01*
X-13739555Y16724405D01*
X-13898039Y16399473D01*
X-14063534Y16461540D01*
X-14215416Y16905566D01*
X-14322210Y17615746D01*
X-14367848Y19112689D01*
X-14222399Y20637613D01*
X-13906946Y22050250D01*
X-13497018Y23105909D01*
X-12315040Y25120922D01*
X-10753258Y27237804D01*
X-8816865Y29449903D01*
X-7465411Y30831891D01*
X-6121742Y32144195D01*
X-5010477Y33193830D01*
X-4088011Y34007643D01*
X-3310741Y34612483D01*
X-2635063Y35035196D01*
X-2017373Y35302631D01*
X-1414069Y35441636D01*
X-781546Y35479059D01*
X-76200Y35441747D01*
G37*
G36*
X20744468Y51932839D02*
G01*
X21205327Y51452366D01*
X21821420Y50690101D01*
X22569008Y49677565D01*
X23424352Y48446276D01*
X24363713Y47027754D01*
X24830875Y46300000D01*
X27218324Y42235801D01*
X29422660Y37839822D01*
X31447240Y33104282D01*
X33295420Y28021399D01*
X34794426Y23200000D01*
X35120287Y22082865D01*
X35434831Y21027714D01*
X35709543Y20128599D01*
X35915909Y19479573D01*
X35976816Y19300000D01*
X36170378Y18659448D01*
X36284452Y18105225D01*
X36297089Y17950000D01*
X36374735Y17598694D01*
X36500000Y17500000D01*
X36694881Y17545757D01*
X36700000Y17559007D01*
X36772940Y17765083D01*
X36980226Y18298662D01*
X37304553Y19117109D01*
X37728617Y20177790D01*
X38235114Y21438071D01*
X38806741Y22855315D01*
X39426192Y24386888D01*
X40076164Y25990156D01*
X40739354Y27622483D01*
X41398456Y29241234D01*
X42036167Y30803774D01*
X42635182Y32267470D01*
X43178199Y33589685D01*
X43647912Y34727785D01*
X44027018Y35639134D01*
X44298212Y36281099D01*
X44306326Y36300000D01*
X44783046Y37409611D01*
X45140630Y38244362D01*
X45417272Y38897155D01*
X45651165Y39460890D01*
X45880502Y40028470D01*
X46143478Y40692794D01*
X46478285Y41546764D01*
X46773052Y42300000D01*
X47159926Y43300862D01*
X47526402Y44270996D01*
X47828315Y45092219D01*
X48006231Y45600000D01*
X48314963Y46411011D01*
X48573594Y46833871D01*
X48787247Y46876597D01*
X48809583Y46857083D01*
X48823673Y46652706D01*
X48773904Y46123010D01*
X48658585Y45256775D01*
X48476027Y44042783D01*
X48224541Y42469817D01*
X47902436Y40526658D01*
X47508022Y38202087D01*
X47490545Y38100000D01*
X47293543Y36929238D01*
X47067507Y35554072D01*
X46843604Y34165541D01*
X46691099Y33200000D01*
X46393919Y31373486D01*
X46026007Y29239497D01*
X45603004Y26881123D01*
X45140551Y24381452D01*
X44654288Y21823576D01*
X44159855Y19290582D01*
X43672892Y16865560D01*
X43209040Y14631599D01*
X43095801Y14100000D01*
X42899161Y13168446D01*
X42654267Y11987694D01*
X42390605Y10700921D01*
X42137659Y9451302D01*
X42107292Y9300000D01*
X41837050Y8009681D01*
X41525172Y6611227D01*
X41209355Y5269011D01*
X40927296Y4147409D01*
X40914737Y4100000D01*
X40561286Y2755819D01*
X40235645Y1483069D01*
X39913630Y183044D01*
X39571060Y-1242965D01*
X39183751Y-2893667D01*
X38881300Y-4200000D01*
X38640089Y-5213348D01*
X38417624Y-6088582D01*
X38234022Y-6750778D01*
X38109403Y-7125017D01*
X38082324Y-7175440D01*
X37946267Y-7117310D01*
X37788310Y-6761660D01*
X37735743Y-6575440D01*
X37626616Y-6094166D01*
X37462853Y-5317814D01*
X37264616Y-4344255D01*
X37052064Y-3271355D01*
X36999231Y-3000000D01*
X36776618Y-1855087D01*
X36555815Y-724204D01*
X36360315Y272618D01*
X36213612Y1015348D01*
X36196753Y1100000D01*
X36092026Y1717312D01*
X35958644Y2642525D01*
X35808462Y3785596D01*
X35653334Y5056483D01*
X35512199Y6300000D01*
X35301490Y8227837D01*
X35126756Y9810525D01*
X34981332Y11100635D01*
X34858553Y12150740D01*
X34751754Y13013411D01*
X34654270Y13741221D01*
X34559438Y14386741D01*
X34460592Y15002544D01*
X34351067Y15641200D01*
X34269832Y16100000D01*
X33780606Y18512791D01*
X33230753Y20619101D01*
X32627590Y22399542D01*
X31978435Y23834728D01*
X31290605Y24905271D01*
X30730994Y25475452D01*
X30271415Y25922157D01*
X29695786Y26600190D01*
X29094986Y27398561D01*
X28782826Y27854702D01*
X28190653Y28740339D01*
X27571113Y29642691D01*
X27022896Y30418878D01*
X26817544Y30700000D01*
X26370781Y31309055D01*
X26001865Y31826181D01*
X25800000Y32125072D01*
X25442010Y32669528D01*
X24888608Y33465427D01*
X24188170Y34447095D01*
X23389076Y35548855D01*
X22539705Y36705030D01*
X21688435Y37849945D01*
X20883645Y38917923D01*
X20173714Y39843289D01*
X19607021Y40560366D01*
X19411345Y40797937D01*
X18622691Y41735542D01*
X18976339Y43367771D01*
X19190329Y44373759D01*
X19414319Y45455696D01*
X19600568Y46382910D01*
X19603915Y46400000D01*
X19776415Y47244358D01*
X19954223Y48055974D01*
X20084150Y48600000D01*
X20194808Y49235220D01*
X20271562Y50067524D01*
X20295228Y50750000D01*
X20319630Y51426201D01*
X20379106Y51910517D01*
X20460886Y52099928D01*
X20462581Y52100000D01*
X20744468Y51932839D01*
G37*
G36*
X44618892Y78098206D02*
G01*
X47127388Y78092620D01*
X49273121Y78082937D01*
X51074704Y78068851D01*
X52550748Y78050056D01*
X53719865Y78026246D01*
X54600665Y77997117D01*
X55211761Y77962363D01*
X55571763Y77921678D01*
X55699283Y77874757D01*
X55700000Y77870621D01*
X55645402Y77598687D01*
X55496735Y77027706D01*
X55276690Y76241211D01*
X55007958Y75322737D01*
X55007326Y75320621D01*
X54461347Y73394392D01*
X53879842Y71167958D01*
X53285528Y68736851D01*
X52701122Y66196602D01*
X52149339Y63642744D01*
X51697155Y61400000D01*
X51259726Y59285430D01*
X50834476Y57510453D01*
X50427112Y56097652D01*
X50180780Y55400000D01*
X49905625Y54694514D01*
X49583193Y53868409D01*
X49198493Y52883316D01*
X48736533Y51700865D01*
X48182321Y50282687D01*
X47520866Y48590412D01*
X46737176Y46585670D01*
X46234549Y45300000D01*
X45778654Y44128302D01*
X45274249Y42823053D01*
X44795084Y41575468D01*
X44533953Y40890915D01*
X44177323Y39961396D01*
X43840871Y39100376D01*
X43568323Y38418911D01*
X43431485Y38090915D01*
X43235668Y37618126D01*
X42942668Y36882457D01*
X42596472Y35995290D01*
X42329329Y35300000D01*
X42044230Y34557752D01*
X41640694Y33514351D01*
X41146402Y32241001D01*
X40589036Y30808906D01*
X39996279Y29289270D01*
X39395811Y27753297D01*
X39335802Y27600000D01*
X38779844Y26178165D01*
X38268083Y24865955D01*
X37819647Y23712684D01*
X37453665Y22767666D01*
X37189262Y22080215D01*
X37045566Y21699644D01*
X37027960Y21650000D01*
X36806237Y21345162D01*
X36535626Y21352560D01*
X36395906Y21550000D01*
X36317008Y21844987D01*
X36180230Y22432128D01*
X36008354Y23211796D01*
X35904289Y23700000D01*
X35568074Y25223153D01*
X35227896Y26586347D01*
X34847126Y27916029D01*
X34389137Y29338642D01*
X33817302Y30980630D01*
X33702780Y31300000D01*
X33215728Y32652690D01*
X32836841Y33698070D01*
X32538798Y34505189D01*
X32294280Y35143094D01*
X32075967Y35680831D01*
X31856538Y36187449D01*
X31608675Y36731993D01*
X31305056Y37383513D01*
X31244550Y37512829D01*
X30598846Y38890195D01*
X30090991Y39965527D01*
X29690874Y40799816D01*
X29368385Y41454056D01*
X29093413Y41989242D01*
X28835850Y42466365D01*
X28565584Y42946421D01*
X28540805Y42989761D01*
X28064758Y43827550D01*
X27557871Y44728509D01*
X27239485Y45300000D01*
X25893040Y47529843D01*
X24270065Y49876991D01*
X22438128Y52254791D01*
X20464794Y54576595D01*
X18417632Y56755752D01*
X17923471Y57247272D01*
X16928526Y58202680D01*
X16116733Y58926402D01*
X15403838Y59484230D01*
X14705584Y59941954D01*
X13937717Y60365368D01*
X13916079Y60376504D01*
X11540903Y61386293D01*
X9087523Y62022912D01*
X7749209Y62205571D01*
X6855457Y62322116D01*
X6319280Y62468284D01*
X6154118Y62637441D01*
X6373410Y62822956D01*
X6440067Y62851692D01*
X6773408Y63012210D01*
X7352867Y63314933D01*
X8075987Y63705865D01*
X8402916Y63886159D01*
X10943673Y65365905D01*
X13602696Y67042725D01*
X16304443Y68861940D01*
X18973368Y70768874D01*
X21533929Y72708849D01*
X23910581Y74627186D01*
X26027780Y76469208D01*
X26866676Y77250000D01*
X27758047Y78100000D01*
X41729023Y78100000D01*
X44618892Y78098206D01*
G37*
G36*
X-23906655Y78092929D02*
G01*
X-22758641Y78073111D01*
X-21812406Y78042642D01*
X-21124395Y78003614D01*
X-20751055Y77958123D01*
X-20700001Y77933037D01*
X-20556373Y77742816D01*
X-20167830Y77358289D01*
X-19597880Y76839854D01*
X-19070204Y76383037D01*
X-18163006Y75611743D01*
X-17150273Y74748476D01*
X-16204996Y73940758D01*
X-15903150Y73682237D01*
X-14470934Y72507387D01*
X-12796366Y71221970D01*
X-10950596Y69874145D01*
X-9004773Y68512070D01*
X-7030046Y67183902D01*
X-5097565Y65937799D01*
X-3278479Y64821918D01*
X-1643937Y63884418D01*
X-668143Y63370359D01*
X-30101Y63024750D01*
X423124Y62729962D01*
X611987Y62539208D01*
X609611Y62515552D01*
X374802Y62417995D01*
X-150696Y62312234D01*
X-858655Y62219481D01*
X-945562Y62210735D01*
X-3077274Y61899667D01*
X-4958355Y61387583D01*
X-6704261Y60634648D01*
X-8347219Y59657050D01*
X-8927067Y59223247D01*
X-9678627Y58595928D01*
X-10532132Y57840609D01*
X-11417814Y57022810D01*
X-12265905Y56208048D01*
X-13006639Y55461842D01*
X-13570249Y54849709D01*
X-13860966Y54479122D01*
X-14175197Y54046049D01*
X-14641292Y53458714D01*
X-15043322Y52979122D01*
X-15743999Y52125501D01*
X-16572826Y51054007D01*
X-17446335Y49878265D01*
X-18281056Y48711900D01*
X-18993521Y47668537D01*
X-19334731Y47137315D01*
X-19882406Y46359140D01*
X-20358156Y45924470D01*
X-20612066Y45814844D01*
X-21132006Y45601210D01*
X-21711868Y45251042D01*
X-21806357Y45181592D01*
X-22193018Y44814971D01*
X-22461120Y44353397D01*
X-22636213Y43714414D01*
X-22743846Y42815565D01*
X-22792171Y42000000D01*
X-22891314Y41151673D01*
X-23138499Y40314987D01*
X-23582090Y39326530D01*
X-23585373Y39319950D01*
X-24609525Y37133667D01*
X-25650359Y34659840D01*
X-26664945Y32006461D01*
X-27610357Y29281517D01*
X-27767215Y28800000D01*
X-28132686Y27623632D01*
X-28481402Y26423309D01*
X-28792959Y25277444D01*
X-29046951Y24264447D01*
X-29222973Y23462733D01*
X-29300620Y22950711D01*
X-29302559Y22900000D01*
X-29381011Y22387422D01*
X-29500000Y22100000D01*
X-29529664Y22251502D01*
X-29557033Y22797961D01*
X-29582073Y23734343D01*
X-29604748Y25055613D01*
X-29625023Y26756735D01*
X-29642862Y28832673D01*
X-29658229Y31278393D01*
X-29671088Y34088859D01*
X-29681405Y37259036D01*
X-29689143Y40783888D01*
X-29694267Y44658380D01*
X-29696741Y48877476D01*
X-29696938Y49950000D01*
X-29700000Y78100000D01*
X-25200000Y78100000D01*
X-23906655Y78092929D01*
G37*
G36*
X9193477Y50718312D02*
G01*
X9560113Y50524652D01*
X10167846Y50072758D01*
X10926297Y49370351D01*
X11850699Y48400844D01*
X12956289Y47147652D01*
X14258303Y45594190D01*
X15532720Y44022918D01*
X16420670Y42917393D01*
X17285215Y41845094D01*
X18074480Y40870052D01*
X18736592Y40056300D01*
X19219677Y39467870D01*
X19340280Y39322918D01*
X19939998Y38594609D01*
X20676996Y37681120D01*
X21495496Y36653521D01*
X22339720Y35582879D01*
X23153892Y34540262D01*
X23882234Y33596739D01*
X24468968Y32823377D01*
X24852167Y32300000D01*
X25215045Y31790407D01*
X25745259Y31053769D01*
X26373746Y30185710D01*
X27031445Y29281854D01*
X27081625Y29213096D01*
X27793331Y28213847D01*
X28262203Y27492931D01*
X28502438Y27022189D01*
X28528233Y26773463D01*
X28353782Y26718597D01*
X28338196Y26720713D01*
X28101805Y26791644D01*
X27575629Y26966176D01*
X26847137Y27214950D01*
X26300000Y27404847D01*
X25458083Y27688819D01*
X24731725Y27915531D01*
X24220458Y28054860D01*
X24055469Y28084134D01*
X23730717Y28151121D01*
X23122456Y28319798D01*
X22325734Y28562648D01*
X21655469Y28778965D01*
X20615937Y29113408D01*
X19359136Y29504310D01*
X18052922Y29900067D01*
X17000000Y30210179D01*
X15266485Y30741190D01*
X13886984Y31233131D01*
X12819707Y31704749D01*
X12022868Y32174788D01*
X11454681Y32661995D01*
X11400000Y32722366D01*
X9997106Y34359054D01*
X8853459Y35793803D01*
X7926090Y37086713D01*
X7172029Y38297886D01*
X6548307Y39487423D01*
X6518545Y39550000D01*
X6205602Y40197560D01*
X5962352Y40675506D01*
X5834364Y40894836D01*
X5827349Y40900000D01*
X5635225Y40817800D01*
X5202458Y40607959D01*
X4887565Y40450000D01*
X4595089Y40310666D01*
X4299377Y40203276D01*
X3945513Y40123508D01*
X3478583Y40067043D01*
X2843672Y40029557D01*
X1985864Y40006731D01*
X850245Y39994242D01*
X-618101Y39987770D01*
X-1000000Y39986701D01*
X-2646742Y39977683D01*
X-3949027Y39958289D01*
X-4962334Y39925350D01*
X-5742143Y39875693D01*
X-6343933Y39806148D01*
X-6823182Y39713544D01*
X-7100000Y39638042D01*
X-9635409Y38968813D01*
X-11947484Y38586256D01*
X-14091598Y38490125D01*
X-16123125Y38680172D01*
X-18097439Y39156152D01*
X-19289841Y39583794D01*
X-20537375Y40207517D01*
X-21411199Y40931806D01*
X-21901867Y41704507D01*
X-22054473Y42279112D01*
X-22046808Y42778684D01*
X-21894682Y43090687D01*
X-21700865Y43135205D01*
X-21544271Y43149859D01*
X-21677442Y43362371D01*
X-21755613Y43450953D01*
X-22061214Y43967783D01*
X-21998740Y44491793D01*
X-21717583Y44927844D01*
X-21576317Y45088793D01*
X-21412174Y45208391D01*
X-21168224Y45292927D01*
X-20787537Y45348693D01*
X-20213181Y45381980D01*
X-19388227Y45399080D01*
X-18255744Y45406284D01*
X-17367583Y45408554D01*
X-15918652Y45415077D01*
X-14794473Y45438454D01*
X-13919796Y45494982D01*
X-13219375Y45600957D01*
X-12617960Y45772678D01*
X-12040304Y46026441D01*
X-11411157Y46378543D01*
X-10655273Y46845281D01*
X-10613866Y46871251D01*
X-9753299Y47403070D01*
X-8961123Y47865898D01*
X-8200765Y48267607D01*
X-7435650Y48616070D01*
X-6629205Y48919160D01*
X-5744855Y49184748D01*
X-4746028Y49420708D01*
X-3596148Y49634911D01*
X-2258643Y49835231D01*
X-696938Y50029539D01*
X1125540Y50225707D01*
X3245366Y50431609D01*
X5699113Y50655117D01*
X7846748Y50844843D01*
X8614851Y50859828D01*
X9193477Y50718312D01*
G37*
G36*
X-13714887Y51838332D02*
G01*
X-13602251Y51231976D01*
X-13491706Y50269792D01*
X-13405039Y49272800D01*
X-13324539Y48146287D01*
X-13292240Y47357911D01*
X-13309058Y46848616D01*
X-13375908Y46559343D01*
X-13448652Y46459624D01*
X-13716040Y46377697D01*
X-14262586Y46295726D01*
X-14993502Y46219865D01*
X-15814004Y46156270D01*
X-16629307Y46111098D01*
X-17344625Y46090505D01*
X-17865172Y46100646D01*
X-18096164Y46147678D01*
X-18100000Y46157535D01*
X-17987825Y46395979D01*
X-17679978Y46893728D01*
X-17219481Y47589106D01*
X-16649355Y48420442D01*
X-16012622Y49326062D01*
X-15352303Y50244292D01*
X-14711419Y51113461D01*
X-14132990Y51871894D01*
X-13966357Y52083334D01*
X-13834596Y52113803D01*
X-13714887Y51838332D01*
G37*
G36*
X4921658Y61385165D02*
G01*
X6111823Y61372984D01*
X7038963Y61345651D01*
X7771545Y61298329D01*
X8378039Y61226184D01*
X8926914Y61124378D01*
X9486636Y60988076D01*
X9643725Y60946029D01*
X10698039Y60632501D01*
X11676772Y60291051D01*
X12510135Y59951269D01*
X13128339Y59642746D01*
X13461594Y59395070D01*
X13500000Y59311006D01*
X13393888Y59167915D01*
X13045080Y59127759D01*
X12407865Y59192169D01*
X11436529Y59362777D01*
X11300000Y59389544D01*
X8852916Y59798891D01*
X6328540Y60084197D01*
X3802008Y60244531D01*
X1348457Y60278964D01*
X-956977Y60186565D01*
X-3039160Y59966403D01*
X-4822953Y59617548D01*
X-4926478Y59590477D01*
X-5641153Y59405972D01*
X-6053188Y59323719D01*
X-6244876Y59337229D01*
X-6298512Y59440012D01*
X-6300000Y59482159D01*
X-6116354Y59702413D01*
X-5608961Y59987749D01*
X-4843142Y60310365D01*
X-3884218Y60642463D01*
X-2900000Y60929168D01*
X-2306980Y61078075D01*
X-1747046Y61190731D01*
X-1150937Y61272170D01*
X-449388Y61327427D01*
X426863Y61361535D01*
X1547079Y61379528D01*
X2980524Y61386439D01*
X3400000Y61387030D01*
X4921658Y61385165D01*
G37*
D12*
%TO.C,D1*%
X250000Y-4500000D02*
X750000Y-4500000D01*
X250000Y-4900000D02*
X-350000Y-4500000D01*
X250000Y-4100000D02*
X250000Y-4900000D01*
X-350000Y-4500000D02*
X250000Y-4100000D01*
X-350000Y-4500000D02*
X-350000Y-5050000D01*
X-350000Y-4500000D02*
X-350000Y-3950000D01*
X-750000Y-4500000D02*
X-350000Y-4500000D01*
%TO.C,D2*%
X250000Y12500000D02*
X750000Y12500000D01*
X250000Y12100000D02*
X-350000Y12500000D01*
X250000Y12900000D02*
X250000Y12100000D01*
X-350000Y12500000D02*
X250000Y12900000D01*
X-350000Y12500000D02*
X-350000Y11950000D01*
X-350000Y12500000D02*
X-350000Y13050000D01*
X-750000Y12500000D02*
X-350000Y12500000D01*
%TO.C,D3*%
X250000Y29500000D02*
X750000Y29500000D01*
X250000Y29100000D02*
X-350000Y29500000D01*
X250000Y29900000D02*
X250000Y29100000D01*
X-350000Y29500000D02*
X250000Y29900000D01*
X-350000Y29500000D02*
X-350000Y28950000D01*
X-350000Y29500000D02*
X-350000Y30050000D01*
X-750000Y29500000D02*
X-350000Y29500000D01*
%TO.C,D4*%
X250000Y46500000D02*
X750000Y46500000D01*
X250000Y46100000D02*
X-350000Y46500000D01*
X250000Y46900000D02*
X250000Y46100000D01*
X-350000Y46500000D02*
X250000Y46900000D01*
X-350000Y46500000D02*
X-350000Y45950000D01*
X-350000Y46500000D02*
X-350000Y47050000D01*
X-750000Y46500000D02*
X-350000Y46500000D01*
%TO.C,D5*%
X250000Y63500000D02*
X750000Y63500000D01*
X250000Y63100000D02*
X-350000Y63500000D01*
X250000Y63900000D02*
X250000Y63100000D01*
X-350000Y63500000D02*
X250000Y63900000D01*
X-350000Y63500000D02*
X-350000Y62950000D01*
X-350000Y63500000D02*
X-350000Y64050000D01*
X-750000Y63500000D02*
X-350000Y63500000D01*
%TO.C,D6*%
X18250000Y-4500000D02*
X18750000Y-4500000D01*
X18250000Y-4900000D02*
X17650000Y-4500000D01*
X18250000Y-4100000D02*
X18250000Y-4900000D01*
X17650000Y-4500000D02*
X18250000Y-4100000D01*
X17650000Y-4500000D02*
X17650000Y-5050000D01*
X17650000Y-4500000D02*
X17650000Y-3950000D01*
X17250000Y-4500000D02*
X17650000Y-4500000D01*
%TO.C,D7*%
X18250000Y12500000D02*
X18750000Y12500000D01*
X18250000Y12100000D02*
X17650000Y12500000D01*
X18250000Y12900000D02*
X18250000Y12100000D01*
X17650000Y12500000D02*
X18250000Y12900000D01*
X17650000Y12500000D02*
X17650000Y11950000D01*
X17650000Y12500000D02*
X17650000Y13050000D01*
X17250000Y12500000D02*
X17650000Y12500000D01*
%TO.C,D8*%
X18250000Y29500000D02*
X18750000Y29500000D01*
X18250000Y29100000D02*
X17650000Y29500000D01*
X18250000Y29900000D02*
X18250000Y29100000D01*
X17650000Y29500000D02*
X18250000Y29900000D01*
X17650000Y29500000D02*
X17650000Y28950000D01*
X17650000Y29500000D02*
X17650000Y30050000D01*
X17250000Y29500000D02*
X17650000Y29500000D01*
%TO.C,D9*%
X18250000Y46500000D02*
X18750000Y46500000D01*
X18250000Y46100000D02*
X17650000Y46500000D01*
X18250000Y46900000D02*
X18250000Y46100000D01*
X17650000Y46500000D02*
X18250000Y46900000D01*
X17650000Y46500000D02*
X17650000Y45950000D01*
X17650000Y46500000D02*
X17650000Y47050000D01*
X17250000Y46500000D02*
X17650000Y46500000D01*
%TO.C,D10*%
X18250000Y63500000D02*
X18750000Y63500000D01*
X18250000Y63100000D02*
X17650000Y63500000D01*
X18250000Y63900000D02*
X18250000Y63100000D01*
X17650000Y63500000D02*
X18250000Y63900000D01*
X17650000Y63500000D02*
X17650000Y62950000D01*
X17650000Y63500000D02*
X17650000Y64050000D01*
X17250000Y63500000D02*
X17650000Y63500000D01*
%TO.C,D11*%
X36250000Y-4500000D02*
X36750000Y-4500000D01*
X36250000Y-4900000D02*
X35650000Y-4500000D01*
X36250000Y-4100000D02*
X36250000Y-4900000D01*
X35650000Y-4500000D02*
X36250000Y-4100000D01*
X35650000Y-4500000D02*
X35650000Y-5050000D01*
X35650000Y-4500000D02*
X35650000Y-3950000D01*
X35250000Y-4500000D02*
X35650000Y-4500000D01*
%TO.C,D12*%
X36250000Y12500000D02*
X36750000Y12500000D01*
X36250000Y12100000D02*
X35650000Y12500000D01*
X36250000Y12900000D02*
X36250000Y12100000D01*
X35650000Y12500000D02*
X36250000Y12900000D01*
X35650000Y12500000D02*
X35650000Y11950000D01*
X35650000Y12500000D02*
X35650000Y13050000D01*
X35250000Y12500000D02*
X35650000Y12500000D01*
%TO.C,D13*%
X36250000Y29500000D02*
X36750000Y29500000D01*
X36250000Y29100000D02*
X35650000Y29500000D01*
X36250000Y29900000D02*
X36250000Y29100000D01*
X35650000Y29500000D02*
X36250000Y29900000D01*
X35650000Y29500000D02*
X35650000Y28950000D01*
X35650000Y29500000D02*
X35650000Y30050000D01*
X35250000Y29500000D02*
X35650000Y29500000D01*
%TO.C,D14*%
X36250000Y46500000D02*
X36750000Y46500000D01*
X36250000Y46100000D02*
X35650000Y46500000D01*
X36250000Y46900000D02*
X36250000Y46100000D01*
X35650000Y46500000D02*
X36250000Y46900000D01*
X35650000Y46500000D02*
X35650000Y45950000D01*
X35650000Y46500000D02*
X35650000Y47050000D01*
X35250000Y46500000D02*
X35650000Y46500000D01*
%TO.C,D15*%
X36250000Y63500000D02*
X36750000Y63500000D01*
X36250000Y63100000D02*
X35650000Y63500000D01*
X36250000Y63900000D02*
X36250000Y63100000D01*
X35650000Y63500000D02*
X36250000Y63900000D01*
X35650000Y63500000D02*
X35650000Y62950000D01*
X35650000Y63500000D02*
X35650000Y64050000D01*
X35250000Y63500000D02*
X35650000Y63500000D01*
%TO.C,D16*%
X54250000Y-4500000D02*
X54750000Y-4500000D01*
X54250000Y-4900000D02*
X53650000Y-4500000D01*
X54250000Y-4100000D02*
X54250000Y-4900000D01*
X53650000Y-4500000D02*
X54250000Y-4100000D01*
X53650000Y-4500000D02*
X53650000Y-5050000D01*
X53650000Y-4500000D02*
X53650000Y-3950000D01*
X53250000Y-4500000D02*
X53650000Y-4500000D01*
%TO.C,D17*%
X54250000Y12500000D02*
X54750000Y12500000D01*
X54250000Y12100000D02*
X53650000Y12500000D01*
X54250000Y12900000D02*
X54250000Y12100000D01*
X53650000Y12500000D02*
X54250000Y12900000D01*
X53650000Y12500000D02*
X53650000Y11950000D01*
X53650000Y12500000D02*
X53650000Y13050000D01*
X53250000Y12500000D02*
X53650000Y12500000D01*
%TO.C,D18*%
X54250000Y29500000D02*
X54750000Y29500000D01*
X54250000Y29100000D02*
X53650000Y29500000D01*
X54250000Y29900000D02*
X54250000Y29100000D01*
X53650000Y29500000D02*
X54250000Y29900000D01*
X53650000Y29500000D02*
X53650000Y28950000D01*
X53650000Y29500000D02*
X53650000Y30050000D01*
X53250000Y29500000D02*
X53650000Y29500000D01*
%TO.C,D19*%
X54250000Y46500000D02*
X54750000Y46500000D01*
X54250000Y46100000D02*
X53650000Y46500000D01*
X54250000Y46900000D02*
X54250000Y46100000D01*
X53650000Y46500000D02*
X54250000Y46900000D01*
X53650000Y46500000D02*
X53650000Y45950000D01*
X53650000Y46500000D02*
X53650000Y47050000D01*
X53250000Y46500000D02*
X53650000Y46500000D01*
%TO.C,D20*%
X54250000Y63500000D02*
X54750000Y63500000D01*
X54250000Y63100000D02*
X53650000Y63500000D01*
X54250000Y63900000D02*
X54250000Y63100000D01*
X53650000Y63500000D02*
X54250000Y63900000D01*
X53650000Y63500000D02*
X53650000Y62950000D01*
X53650000Y63500000D02*
X53650000Y64050000D01*
X53250000Y63500000D02*
X53650000Y63500000D01*
D11*
%TO.C,T1*%
X-19950000Y-7850000D02*
X-16050000Y-7850000D01*
X-18000000Y-7850000D02*
X-14700000Y-7850000D01*
X-14700000Y-7850000D02*
X-14700000Y-5000000D01*
X-14700000Y-5000000D02*
X-21300000Y-5000000D01*
X-21300000Y-5000000D02*
X-21300000Y-7850000D01*
X-18000000Y-7850000D02*
X-21300000Y-7850000D01*
%TO.C,JST1*%
X-16250000Y37250000D02*
X-16250000Y35650000D01*
X-16250000Y35650000D02*
X-15550000Y35650000D01*
X-15550000Y35650000D02*
X-15550000Y43250000D01*
X-15550000Y43250000D02*
X-21450000Y43250000D01*
X-21450000Y43250000D02*
X-21450000Y35650000D01*
X-21450000Y35650000D02*
X-20750000Y35650000D01*
X-20750000Y35650000D02*
X-20750000Y37250000D01*
X-20750000Y37250000D02*
X-16250000Y37250000D01*
X-17500000Y38500000D02*
X-17500000Y39000000D01*
X-17250000Y38750000D02*
X-17750000Y38750000D01*
%TD*%
D13*
%TO.C,MCU1*%
X-26620000Y72970000D03*
D14*
X-26620000Y70430000D03*
X-26620000Y67890000D03*
X-26620000Y65350000D03*
X-26620000Y62810000D03*
X-26620000Y60270000D03*
X-26620000Y57730000D03*
X-26620000Y55190000D03*
X-26620000Y52650000D03*
X-26620000Y50110000D03*
X-26620000Y47570000D03*
X-26620000Y45030000D03*
X-11380000Y72970000D03*
X-11380000Y70430000D03*
X-11380000Y67890000D03*
X-11380000Y65350000D03*
X-11380000Y62810000D03*
X-11380000Y60270000D03*
X-11380000Y57730000D03*
X-11380000Y55190000D03*
X-11380000Y52650000D03*
X-11380000Y50110000D03*
X-11380000Y47570000D03*
X-11380000Y45030000D03*
%TD*%
M02*
