M48
; DRILL file {KiCad (6.0.4)} date Mon Jul 18 01:28:06 2022
; FORMAT={-:-/ absolute / inch / decimal}
; #@! TF.CreationDate,2022-07-18T01:28:06-04:00
; #@! TF.GenerationSoftware,Kicad,Pcbnew,(6.0.4)
; #@! TF.FileFunction,Plated,1,2,PTH
FMAT,2
INCH
; #@! TA.AperFunction,Plated,PTH,ComponentDrill
T1C0.0295
; #@! TA.AperFunction,Plated,PTH,ComponentDrill
T2C0.0390
; #@! TA.AperFunction,Plated,PTH,ComponentDrill
T3C0.0430
; #@! TA.AperFunction,Plated,PTH,ComponentDrill
T4C0.0591
%
G90
G05
T1
X-0.7677Y1.4567
X-0.689Y1.4567
T2
X-0.15Y2.5
X-0.15Y1.8307
X-0.15Y1.1614
X-0.15Y0.4921
X-0.15Y-0.1772
X0.15Y2.5
X0.15Y1.8307
X0.15Y1.1614
X0.15Y0.4921
X0.15Y-0.1772
X0.5587Y2.5
X0.5587Y1.8307
X0.5587Y1.1614
X0.5587Y0.4921
X0.5587Y-0.1772
X0.8587Y2.5
X0.8587Y1.8307
X0.8587Y1.1614
X0.8587Y0.4921
X0.8587Y-0.1772
X1.2673Y2.5
X1.2673Y1.8307
X1.2673Y1.1614
X1.2673Y0.4921
X1.2673Y-0.1772
X1.5673Y2.5
X1.5673Y1.8307
X1.5673Y1.1614
X1.5673Y0.4921
X1.5673Y-0.1772
X1.976Y2.5
X1.976Y1.8307
X1.976Y1.1614
X1.976Y0.4921
X1.976Y-0.1772
X2.276Y2.5
X2.276Y1.8307
X2.276Y1.1614
X2.276Y0.4921
X2.276Y-0.1772
T3
X-1.048Y2.8728
X-1.048Y2.7728
X-1.048Y2.6728
X-1.048Y2.5728
X-1.048Y2.4728
X-1.048Y2.3728
X-1.048Y2.2728
X-1.048Y2.1728
X-1.048Y2.0728
X-1.048Y1.9728
X-1.048Y1.8728
X-1.048Y1.7728
X-0.448Y2.8728
X-0.448Y2.7728
X-0.448Y2.6728
X-0.448Y2.5728
X-0.448Y2.4728
X-0.448Y2.3728
X-0.448Y2.2728
X-0.448Y2.1728
X-0.448Y2.0728
X-0.448Y1.9728
X-0.448Y1.8728
X-0.448Y1.7728
T4
X0.0Y2.9094
X0.0Y2.2402
X0.0Y1.5709
X0.0Y0.9016
X0.0Y0.2323
X0.1969Y2.8268
X0.1969Y2.1575
X0.1969Y1.4882
X0.1969Y0.8189
X0.1969Y0.1496
X0.7087Y2.9094
X0.7087Y2.2402
X0.7087Y1.5709
X0.7087Y0.9016
X0.7087Y0.2323
X0.9055Y2.8268
X0.9055Y2.1575
X0.9055Y1.4882
X0.9055Y0.8189
X0.9055Y0.1496
X1.4173Y2.9094
X1.4173Y2.2402
X1.4173Y1.5709
X1.4173Y0.9016
X1.4173Y0.2323
X1.6142Y2.8268
X1.6142Y2.1575
X1.6142Y1.4882
X1.6142Y0.8189
X1.6142Y0.1496
X2.126Y2.9094
X2.126Y2.2402
X2.126Y1.5709
X2.126Y0.9016
X2.126Y0.2323
X2.3228Y2.8268
X2.3228Y2.1575
X2.3228Y1.4882
X2.3228Y0.8189
X2.3228Y0.1496
T0
M30
